<svg xmlns="http://www.w3.org/2000/svg" width="144.052" height="37" viewBox="0 0 144.052 37">
  <g id="Group_836" data-name="Group 836" transform="translate(0 -0.392)">
    <line id="Line_51" data-name="Line 51" x2="107.769" transform="translate(36.282 20.228)" fill="none" stroke="#fff" stroke-width="1" opacity="0.2"/>
    <g id="Group_628" data-name="Group 628" transform="translate(0 0)">
      <g id="search" transform="translate(0 6.936)">
        <path id="Path_6021" data-name="Path 6021" d="M5.669,146.818l-.89,3.324-3.254.069a12.812,12.812,0,0,1-.094-11.943h0l2.9.531,1.269,2.88a7.633,7.633,0,0,0,.072,5.139Z" transform="translate(0 -131.36)" fill="#fbbb00"/>
        <path id="Path_6022" data-name="Path 6022" d="M273.913,208.176a12.785,12.785,0,0,1-4.559,12.363h0l-3.649-.186-.517-3.224a7.623,7.623,0,0,0,3.28-3.892h-6.839v-5.06h12.285Z" transform="translate(-248.557 -197.775)" fill="#518ef8"/>
        <path id="Path_6023" data-name="Path 6023" d="M49.781,316.714h0A12.794,12.794,0,0,1,30.509,312.8l4.145-3.393A7.607,7.607,0,0,0,45.615,313.3Z" transform="translate(-28.985 -293.951)" fill="#28b446"/>
        <path id="Path_6024" data-name="Path 6024" d="M48.148,2.944,44,6.337a7.606,7.606,0,0,0-11.213,3.982L28.625,6.908h0A12.793,12.793,0,0,1,48.148,2.944Z" transform="translate(-27.194)" fill="#f14336"/>
      </g>
      <g id="Group_627" data-name="Group 627" transform="translate(36.641)">
        <g id="noun_Star_1187909" transform="translate(0 2.627)">
          <path id="Path_6020" data-name="Path 6020" d="M15.795,23.255c.125-.253.329-.253.454,0l1.575,3.191a1.1,1.1,0,0,0,.735.534l3.522.513c.279.041.342.235.14.432l-2.549,2.484a1.1,1.1,0,0,0-.281.864l.6,3.508c.048.278-.118.4-.367.267l-3.15-1.657a1.1,1.1,0,0,0-.908,0l-3.15,1.656c-.25.131-.415.011-.367-.267l.6-3.508a1.1,1.1,0,0,0-.281-.864L9.823,27.923c-.2-.2-.139-.391.14-.432l3.522-.513a1.1,1.1,0,0,0,.735-.534Z" transform="translate(-9.704 -23.065)" fill="#fff"/>
        </g>
        <g id="noun_Star_1187909-2" data-name="noun_Star_1187909" transform="translate(16.312 2.627)">
          <path id="Path_6020-2" data-name="Path 6020" d="M15.795,23.255c.125-.253.329-.253.454,0l1.575,3.191a1.1,1.1,0,0,0,.735.534l3.522.513c.279.041.342.235.14.432l-2.549,2.484a1.1,1.1,0,0,0-.281.864l.6,3.508c.048.278-.118.4-.367.267l-3.15-1.657a1.1,1.1,0,0,0-.908,0l-3.15,1.656c-.25.131-.415.011-.367-.267l.6-3.508a1.1,1.1,0,0,0-.281-.864L9.823,27.923c-.2-.2-.139-.391.14-.432l3.522-.513a1.1,1.1,0,0,0,.735-.534Z" transform="translate(-9.704 -23.065)" fill="#fff"/>
        </g>
        <g id="noun_Star_1187909-3" data-name="noun_Star_1187909" transform="translate(32.837 2.627)">
          <path id="Path_6020-3" data-name="Path 6020" d="M15.795,23.255c.125-.253.329-.253.454,0l1.575,3.191a1.1,1.1,0,0,0,.735.534l3.522.513c.279.041.342.235.14.432l-2.549,2.484a1.1,1.1,0,0,0-.281.864l.6,3.508c.048.278-.118.4-.367.267l-3.15-1.657a1.1,1.1,0,0,0-.908,0l-3.15,1.656c-.25.131-.415.011-.367-.267l.6-3.508a1.1,1.1,0,0,0-.281-.864L9.823,27.923c-.2-.2-.139-.391.14-.432l3.522-.513a1.1,1.1,0,0,0,.735-.534Z" transform="translate(-9.704 -23.065)" fill="#fff"/>
        </g>
        <g id="noun_Star_1187909-4" data-name="noun_Star_1187909" transform="translate(49.362 2.627)">
          <path id="Path_6020-4" data-name="Path 6020" d="M15.795,23.255c.125-.253.329-.253.454,0l1.575,3.191a1.1,1.1,0,0,0,.735.534l3.522.513c.279.041.342.235.14.432l-2.549,2.484a1.1,1.1,0,0,0-.281.864l.6,3.508c.048.278-.118.4-.367.267l-3.15-1.657a1.1,1.1,0,0,0-.908,0l-3.15,1.656c-.25.131-.415.011-.367-.267l.6-3.508a1.1,1.1,0,0,0-.281-.864L9.823,27.923c-.2-.2-.139-.391.14-.432l3.522-.513a1.1,1.1,0,0,0,.735-.534Z" transform="translate(-9.704 -23.065)" fill="#fff"/>
        </g>
        <g id="noun_Star_1187909-5" data-name="noun_Star_1187909" transform="translate(65.886 2.626)" opacity="0.32">
          <path id="Path_6020-5" data-name="Path 6020" d="M15.795,23.255c.125-.253.329-.253.454,0l1.575,3.191a1.1,1.1,0,0,0,.735.534l3.522.513c.279.041.342.235.14.432l-2.549,2.484a1.1,1.1,0,0,0-.281.864l.6,3.508c.048.278-.118.4-.367.267l-3.15-1.657a1.1,1.1,0,0,0-.908,0l-3.15,1.656c-.25.131-.415.011-.367-.267l.6-3.508a1.1,1.1,0,0,0-.281-.864L9.823,27.923c-.2-.2-.139-.391.14-.432l3.522-.513a1.1,1.1,0,0,0,.735-.534Z" transform="translate(-9.704 -23.065)" fill="#fff"/>
        </g>
        <text id="Customer_Reviews" data-name="Customer Reviews" transform="translate(-0.33 34.392)" fill="#fff" font-size="12" font-family="Roboto-Regular, Roboto"><tspan x="0" y="0">Customer Reviews</tspan></text>
        <text id="_4.9" data-name="4.9" transform="translate(89.67 13.392)" fill="#fff" font-size="12" font-family="Roboto-Regular, Roboto"><tspan x="0" y="0">4.9</tspan></text>
      </g>
    </g>
  </g>
</svg>
