<svg xmlns="http://www.w3.org/2000/svg" width="625.42" height="408.53" viewBox="0 0 625.42 408.53">
  <path id="Path_69154" data-name="Path 69154" d="M182.69,900.776c.668.237,1.536.111,1.888.923-1.548.077.047.871.08,1.7-.511.723-.889.76-1.466.166.186,4.469,3.894.074,5.519-.049,1.782-.12,1.105,4.171,3.114,3.636.059-1.126-.547-1.064-.807-1.615,1.6-.9,3.634-2.249,4.781.025-1.265.5-.216,2.405.842,2.2.635-1.412,1.276-.7,2.482-2-.886,2.771,2.225.271.892,3.325,1.909-.228.588-1.695,1.72-2.479,1.061,2.251-.009-.44,1.445-.732.254,1.135,1.149.988.467,2.23,2.065.237,3.182-1.621,4.763-.529a11.013,11.013,0,0,1,1-2.387,7.6,7.6,0,0,0,5.18.578c0,4.331,5.487,3.54,7.307,6.61.027-.68-.142-1.6.284-1.75.972.065.931,3.272,1.915,1.51.18-1.974-1.525-.56-1.232-2.719,1.941-.775,5.2-2.59,7.3-1.372-1.253-.569-2,2.221-1.368,2.43.872-.963,1.395-2.4,2.828-2.593-.34.781-.263,2.132-.6,2.919,2.009.566,4.048-1.135,5.5-.612a1.654,1.654,0,0,1-.68,1.221c-2.574.8-6.757-1.556-8.031,1.458,2.594-1.117,5.963,1.5,9.18-.446.012,3.156,4.86-1.492,5.992,2.2,3.714-2.894,10.468-1.347,13.29.818-.278.16-.4.523-.313,1.172a2.651,2.651,0,0,0,2.148-1.372c-.452-.021-.878-.068-.789-1.052,2.55-.268,3.271.464,4.792.043-.154.855-.479,1.483-.629,2.353,2.166-1.009,2.278,1.655,4.444.643-.269-1.55-1.259-1.474-.127-2.836.012,1.612,1.1,1.31,1.566,2.107.674-.929-.748-2.313.609-2.913,2.379.172,2.361-.483,4.736-1.092-.106,2.227,2.287,1.873,1.276,3.848,2.266.1,2.857,1.424,4-1.012-.485,1.778.863,2.166-.183,4.011.694.058.777-.72,1.439-.72-.219-1.252-.981-2.993.213-3.454,4.042.772,9.092,2.525,11.754-.707a4.666,4.666,0,0,1-.269,2.313l1.838-.191c-.287-1.458.056-2.064,1.022-1.827-.8,2.439.842.981.886,3.331-1.6,1.639-3.1-.606-5.212-1.157-.721,3.4-5.558,2.4-6.231.674,1.616,3.537,7.006,3.076,8.557,1.929,2.281,1.261,4.278,3.014,7.141,3.23-.316-1.5.709-1.187,1.022-1.821.189-1.762-.706-1.609-.517-3.374-1.418-.668-.629,1.643-1.782,1.335.4-2.762-1.6-1.243-1.276-3.851,1.758.3,4.278,2.55,4.769-.514l1.829-.2c-.337.781-.263,2.135-.6,2.919,2.089.077-.458-2.99,1.708-3.039.73.926.88,2.288,1.489.409,1.2,1.8-.647,3.131.174,3.977.009-.941,2.476-1.209,2.568-.271.157,1.283.006,2.144-.632,2.338.476-2.934-2.178.48-3.3.366-.47-.809-.561-2.276-1.226-2.725-.027,2.768-2.027.458-2.568.28.461,3.635,2.547,2.691,3.448,3.051.08,1.759-1.265.508-1.732,2.467,1.5-.624,2.993-2.347,3.688.175.1-1.467,2.6.3,1.734-2.47-1.09-.683-1.79,1.744-2.2.237,1.347-2.673,2.364.123,3.711.738.375-1.882-1.2-.3-.83-2.2.369-.028.414-.5.706-.643,1.986-.366,2.3.88,3.794,2.448,1.046-.433-.6-.83-.446-1.667a1.518,1.518,0,0,0,1.076-.692,2.226,2.226,0,0,1,1.2,2.159c.174,1.479-1.406.6-1,2.387,1.409-.6,1.879-.79,2.958.252.75-.581.529-2.488,1.737-2.464.753.086.786,1.452,1.539,1.538a3.214,3.214,0,0,1,4.394-.468c.349-1.147,1.185-1.618,1.737-2.467-1.817-.381-2.574.984-3.348-.784a3.185,3.185,0,0,0,1.052-1.258c-.916.012-1.1,1.015-1.785,1.341.278-3.543-2.293-.206-2.641-1.433.083-.781.473-1.135.269-2.31-2.045,1.686-5.268,2.713-6.648-.428.514,3.319-3.859,1.1-2.275-1.467-1.912.218-.6,1.692-1.734,2.47-.2-1.058-.854-1.341-.857-2.756,3.271-3.272,5.4-1.1,8.53,1.363,2.3-1.824,3.259-.7,4.716-1.652l.077,1.7c.168-1.581,4.042-.91,2.834-2.59-.745,1.489-3.117.67-3.354-.775,2.319-.64,3.578.581,5.895-.058-.461,1.91.157,1.627.857,2.759-.257-3.325,2.26-2.485,1.811-.769,3.191-.769,6.9,1.507,10.655-.578a2.259,2.259,0,0,0,4.083.7,3.865,3.865,0,0,1-.293,1.738c1.471-.769,1.832.422,2.269,1.473,1.374-1.67-1.534-1.919-.488-2.8.978.5,2.26.471,2.668,1.993,2.565-.043,8.128-2.061,10.312.034,2.169-1.987,14.573-3.033,9.975.64,2.574.3,5.685-.8,7.334-.775-1.791.385.712.289.1,2.267,1.049-.612,1.235-.858,1.858.378.056-2.673,2.532.7,3.25-1.489a.289.289,0,0,1-.021-.569,27.3,27.3,0,0,0,.875,3.334c-.86,1.55-1.211.458-2.523,1.4.771,1.919-.195,1.895-.585,3.488,4.766-1.347,4.021-.523,8.117.28.148-2.095-1.776-.514-1.929-2.076l1.835-.188c-.1-1.058-.325-1.879-.833-2.2.186,2.095-1.152-.24-1.392,1.861-.561-.434-1.439-.3-1.2-2.159.644-.2,1.864.378,1.421-1.286-.916.532-1.649,1.018-2.225-.341,1.935-2.162,6.752.243,9.49-2.144,1.185,1.855,8.022,2.267,7.7-.809a7.768,7.768,0,0,1,1.217,2.719c-1.194.7-4.042-.834-3.983,1.562,1.675-.572,4.119-1.461,2.639,1.43,1.04-.012.78-1.79,1.758-1.9l.094,2.279c-.81.025-3.578.074-2.148,1.36.623-1.658,2.352-.139,2.958.261.594-1.209,4.639-1.969,5.2,1.166a1.653,1.653,0,0,1-.686,1.209c-1.226-.046-3-1.5-3.3.35a3.022,3.022,0,0,1-.121-2.839c-1.829-.043-.136,1.716-1,2.384-.573-1.107-1.232-2.264-1.859-.375,1.008,1.71,7.514,2.882,9.606.7,1.548,2.193,6.075-2.07,6.793,3.845a2.222,2.222,0,0,1,3.368,1.347c1.149.3.641-1.63,1.791-1.326,2.178,1.055,1.752,3.276,2.848,6.542-.162-3.146,2.857-2.86,3.989-1.565.027.753-.626.59-.688,1.215,1.347,1.793,1.814-3.125,2.934-.307.827,1.753-2.048,1.015-.662,1.781,1.217-1.455,1.776,1.664,2.541-.846.644.3.674,1.658,1.194,2.159.759-2.35,7.57-2.522,6.692,1.575,6.852-2.6,16.62,2.47,22.928,2.156-.112,1.1-.033,2.461-1.008,2.387-.109-.744-.65-2.544-1.492-.412.656-.148.878.474.8,1.621-1.161.781-2.325-1.495-2.934.3,1.079.12,3.617.689,4.447.683.192-.594.009-2.633.96-3.519-.452,4.171,1.522.292,2.293,2.039-1.093.9-.1,3.393.461,2.233-.9.034-.151-1.867.3-1.741,1.516.5,1.953,5.948,3.1,3.669.092-1.372-1.655.489-1.173-1.587.354-2.332,2.269.108,3.327.221.446-3.423,2.192-4.558,4.264-3.866-1.593.271-.626,1.061-.617,2.919,2.254-.052,3.874-.815,5.936,1.089-.686.188-3.637-.006-2.544.836,1.971-.833,2.181,1.452,1.217,2.722,1.7-1.255,1.788,1.018,3.28-.907.047.72.5.735.434,1.667-.05,1-.579,1.353-1.421,1.283a17.084,17.084,0,0,0,3.117,4.238c.428-1.467-1.525-1.627-.461-2.23,1.548.489,1.383-1.344,2.523-1.4-.148,2.7,1.9,1.519,2.683,2.568-1.551,2.562-3.259-1.947-4.009.99.984-.12,2.293.627,1.947,2.651-.866.431-2.689-.446-2.913.867,1.853.886,3.3-.252,3.826,3.6.514-2.534,2.981-.157,4.334-2.159.685,1.086-.23,1.135.458,2.233,1.111-1.067,1.584,1.944,1.856.379-.9.025-.154-1.873.3-1.747.1,1.446,1.273,1,2.246.91-.2,1.759.7,1.6.505,3.365,3.682-2.015,6.211,2.187,9.624,1.277.236.809-.313,2.977.485,2.8.659-1.732,1.764-2.307,2.884-1.443.024.754-.623.582-.685,1.212,1.607,1.15,7.085-.526,5.292,3.442,1.3-1.8,4.547-3.19,4.42.108,1.155-.5.145-2.6.621-2.919,3.936,4.755,8.167.551,11.937,3.9.012-2.553,3.554,2.774,4.379-1.024a2.4,2.4,0,0,1,1.167,1.59c-4.914,2.4-7.328,1.928-12.079,1.821-.136,3.073,1.915,2.3,2.036,4.924-8.182,4.4-15.317,6.7-22.7,2.934-8.371,1.873-17.143-1.458-24.834,4.869-4.834.311-11.65,1.805-17.27.661,2.411,4.284,8.329-1.037,11.154,2.833a31.664,31.664,0,0,1-.57,4.057,9.931,9.931,0,0,1,5.386,5.7c4.08-1.04,8.507,1.812,11.243,5.1,1.143.311.638-1.627,1.782-1.326-.089,1.384.724,1.175.482,2.808,1.084-.938,2.476-.843,2.981.827,2.178-2.251,2.139,1.153,4.373-1.024l.071,1.7c4.072-.548,6.917,3.8,10.734,1.735-.035,1.077.467,1.206.461,2.23,2.2.271,3.17-1.055,4.1,1.289,6.2-1.725,11.423,3.669,18-.741a2.4,2.4,0,0,0,1.167,1.59c2.444-1.99,7.679-1.578,10.194-2.753a29.613,29.613,0,0,0,1.333-3.562c1.028-.1-.813,1.64.777,1.061,1.409-.661-1.3-1.966-.089-2.276a1.442,1.442,0,0,0,1.51.984c-.34-2.439,1.643-1.695,2.866-2,1.672-4.18,5.744-5.081,7.363-9.314,5.026.4,7.5-4.315,9.928-9.581.52,1.686,1.368-.975,1.861.375-.907-2.168-1.229-1.578-1.3-5,.467-.08.479-.778,1.078-.68.124,1.067-.366,1.3-.278,2.31,1.43-2.3,1.631-2.307,2.822-3.14-2.2-1.089,1.646-3.657,2.092-3.07-.883-1.713-2.668-.658-3.673.378.033-.855-.21-2.085.278-2.307,2.3-.314,4.261,1.2,7.017.418.694-1.384-.789-3.1,1.35-2.987-.089,2.291,1.616,2.6.157,3.971,1.7.526,1.383-1.71,2.893-1.44l.062,1.7c1.149.311.65-1.63,1.8-1.323a31.4,31.4,0,0,1,4.618,5.223c-1.992-.877-3.9,1.695-5.177-.606.795-.523,1.974-.529,2.133-1.932-1.847-1.424-2.3,3.085-4.033.421-2.987,3.19-6.438-1.467-8,2.525,3.043.274,5.759,6.718,6.731,2.738-.1,1.273-1.991.747-1.853-.379.287-.87.476-1.861,1.4-1.864,1.374,2.331,1.383.292,3.688.194-1.008,1.689,1.986,1.824.133,3.408.857,1.015,3.2-1.9,3.365,1.363-.748.418-2.435-.452-2.544.837,1.223.056-1.359,1.9.089,2.27,1.714-2.39,2.34,2.058,4.06.148.006.729-.443.837-.3,1.747,1.123-.754.957-.369,1.856.385.307-2.168-1.412-.763-1.211-2.734,4-.55,5.052-1.541,7.076,2.128-.425.126-1.046,0-1.075.683.47.182.777.655.795,1.627,1.752.231,2.381-1.064,3.232-2.042,4.583,2.033,10.6,5.681,17.442,3.344.032,1.135-.978.824-.65,2.347a3.493,3.493,0,0,0,1.637-5.3c.875-.32.836.957,1.855.388l-.13-3.414c1.634.077,2.287-1.181,2.458-3.1-.774-1.061-.136-4.6-1.3-5-.946,1.79-1.631,1.8-2.913.87-.047,1.553.677,4.158-.969,3.519.946-3.147.219-2.048-1.208-2.722.263-2.556,2.237-4.02,3.6-2.082l-.089-2.27a5.871,5.871,0,0,0-4.686,2.756c.254-1.455,1.22-1.928,1.731-3.026-3.49-.71-12.912,1.5-12.392-6.146-1.528-.984-3.215-2.012-5.182-.609-.251,1.852,1,1.083,1.191,2.159-1.6,1.267-3.049.837-3.756-1.895.171,2.144-2.216,2.405-2.544.831-.21,2.1-1.947,2.353-2.544.833.275-.16.4-.52.322-1.172.544-.16,1.359.061,1.442-.723-1.111-.394-1.377-.747-1.53-1.556-.659.855-1.238.083-1.77,1.895.668.274,1.457-1.815,1.832-.185-.561,1.19-.878,2.74-2.089,3.067-2.181-3.971-.863-5.469,3.4-7.191.9,1.522,1.483,2.264,3,1.4.425-1.461-1.164-2.251-.109-2.839,1.09-.24,1.33,1.965,2.219.338.461-2.218-1.637.058-1.182-2.162,1.253-2.682,2.662-.344,4.335-2.156.086.667,0,1.621.431,1.664,1.9-2.218,4.131-1.064,7.665-1.916-.254,1.849,1.238.646,1.182,2.156,1.953-1.732,4.278-.609,5.121-1.095a7.686,7.686,0,0,1-10.276,1.049c.783,2.058,2.916,1.759,3.82,3.6,1.146.314.647-1.633,1.791-1.32.668,1.852,1.7,2.667.157,3.977,1.448-.172,1.776.031,2.845-2.578-.7-.464-1.158,1.821-1.466.151.5-2.513,2.579.04,3.69.194-.157-1.744-1.619-1.2-1.944-2.645,1.525.329,1.569.077,3.3-.342a4.5,4.5,0,0,0-.452-2.242c2.257-1.959,5.611-.692,6.494-3.5-.428-1.273-1.486-1.433-1.941-2.654,1.793-.44,4.069,3.063,6,2.811-.5.935-1.859.692-2.913.861,1.271,3.03,2.456.726,3.3-.332.685.895.623,3.316.819,2.2,1.3-.2-.851-1.8.3-1.744l.739-.068c-.4.643-.032,2.624.493,3.368.065-1.172.954-1.212,1.016-2.387-.916.163-1.105,1.2-1.492-.418,1.569-.972,2.346.181,4-1.547-.1,2.033,1.794,3.672,2.65,2.011-.9.178-1.776.283-1.876-.944,1.457.381,3.371-1.852,4.659-3.331.08-2.153-.874-2.51-1.6-3.254-.109,1.8,1.324,1.365.473,2.8-1.894-.517-3.026-1.209-4.745,1.052-1.016-1.1-.618-5.629-1.666-4.961.759-.225.009-2.5.629-2.916-1.135.388-1.368-1.292-.821-2.2-1.126.756-.972-.068-1.814.756-.724-2.371-1.483-4.672-3.156-5.383.012,1.437,1.678,3.07.889,3.9-.984.1-.866-1.707-1.9-1.513-.369,3.011,4.225,2.719,3.522,5.34-1.206.1-1.466-1.47-2.978-.836.2-2.387-2.151-2.258-3.108-4.248.638-.4,1.587,1.513,1.832-.178-1.427-.833.762-1.015.668-1.784.027-.387-.919-1.8-.455-2.227,2.7.172,5.889-2.344,7.576-4.2-1.43-.48-5.348,3.528-6.559,1.809-.428.055-.275-4.371-.171-4.543-.872,2.258-1.3-1.3-2.248-.91,0,.9.124,1.963-.671,1.778l-.089-2.273c2.006-1.027,3.874-.249,4.751-1.046-.414-.077-.594-.575-.774-1.064,1.12-.7,1.244.9,2.157-1.363.907,5.257,4.887,1.458,6.825,5.007-1.625.489-.928,2.962-1.037,1.815.458-1.153,2.757-.431,2.633,1.446-1.421.88-.948-1.569-1.9-1.523.112,2.347,1.273,2.858,2.29,2.055-.361-2.11.3-2.814,1.356-2.99.012,1.8,1.049,1.793.883,3.9,2.792-.717,1.841,1.529,2.659,2.009,1.728.323-.561-1.415.665-1.772,2.618-.172,3.868,3.294,5.983,2.236a4.749,4.749,0,0,1-.281,2.316c1.309-.44,2.754,1.987,2.313,2.611-.892.843-.99-2.55-1.495-.418.473.185.78.658.8,1.633,1.167-1.052,1.785-.68,2.24.9.479-1.575,3.439-.412,4.45.692.121,1.969-1.566,1.461-1.726,3.036.8-.19,1.185.335,1.164,1.587-.429.129-1.046.006-1.079.68.907-.021,1.773-.089,2.181-.794-1.531-4.644,2.231-3.765,2.718-5.976,1.078,1.04,1.545.867,2.961.264-.626-1.716-.112-2.805.972-3.512-.29-4.042.177-7.88,1.92-7.613-.428-.052-.437-.858-.431-1.664-.653.058-2.077,1.747-2.565.258.653-1.135.674.274,1.832-.181-.526-1.8,1.17-.557.647-2.344-1.161.009-2.2-.188-2.287-2.058-2.2,1.036-2.742,3.045-5.053,2.8-.027-.569.272-.7.322-1.172-1.729.732-3.664.231-5.419,2.83-.021-.569-.322-.646-.411-1.1.559-2.978,1-.984,1.341-3.556,1.031,2.135,1.1-1.246,1.9,1.519,0-1.077,1.2-.51,1.037-1.818-.665-.51-2.006-.778-1.188-2.159-1.513.031-2.222,1.461-2.958-.265,1.188.363,1.368-.637,1.794-1.323.455,1.424,2.219,1.147.73-.08,1.536.378,2.243.274,2.937-.3-.437.221-1.324-1.516-.428-1.67,1.138.031,1.2,1.938,1.941,2.657.656-1.067-.567-1.71.65-2.35-1.022,1.735.928.953,1.879.953-.349-2.531.564-1.369,1.424-1.286.479-3.974,1.285-9.464,3.608-11.765.919.467.792.1,2.225.341.623-.412-.127-2.691.626-2.919,0,1.415.278,2.338.845,2.765.493-.4-.032-2.193.644-2.35,1.474,1.569.237,4.112,2.03,4.927.1-1.384-.715-1.163-.473-2.8,2.349.338,3.593-.778,5.549.575-.3,2.956.978,3.14,1.989,3.792-.517,4.038-.86,1.467.538,4.5-.547.151-1.365-.059-1.448.72.81.4,1.35,1.267,1.226,3.294-.544.16-1.365-.061-1.448.714,1.844-.391.579,4.648,2.375,4.325-.789-1.987.293-5.432,1.557-7.569-.434-.043-1.04.206-1.12-.458,2.379-.692,1.891-5.315,4.97-5.06.52.3.136,2.184.815,2.2a11.413,11.413,0,0,1,3.439-6.622c.872.692,1.268,2.224,1.965,3.227a3.06,3.06,0,0,0-1.058,1.243c1.98-.766,2.777,1.771,1.593,3.254,1.619.062,1.826-1.808,3.241-2.03-.251,1.852,1,1.076,1.185,2.156-.511,2.8-2.636,1.086-3.241,2.042,1.235,3.494-4.47,2.135-5.357,4.527.674,4.4,2.337-.578,4.405-.443.883.228,1.607,2.045.863,3.334,2.222-1.187,3.965-3.008,5.874-.584.872-.852-.724-1.651.281-2.313a2.582,2.582,0,0,1,1.146,1.021c-.635.037-.922.535-1.061,1.246,1,.065,2.113.378,2.677,2.586-.219-1.1,1.616-2,1.817-.756-.49.055-.3,1.031-.694,1.212-2.077.037-3.841.5-3.933,3.248,1.578,2.682,3.035,5.579,5.07,7.468-1.684.406-2.3-1.064-2.29-2.052-.4,1.824-1.791-1.061-1.791,1.323.951,1.16,2.458,1.344,2.715,3.719.393,1.79-.907,1.27-1.013,2.381,1.652,1.092,3.953,3.069,3.537,5.918,1.143.3.647-1.633,1.791-1.326.585,1.938-.9,3.743.168,4.549.585-1.184.753-2.928,1.708-3.6.118.8.644.9.8,1.633-.21,1.148-2.2-.129-1.77,1.889.86.514,1.365,1.642,2.633,1.449-.275-1.6-1.466-2.75.239-3.454.733.938,1.229,2.294,1.962,3.229a13.965,13.965,0,0,1,.03-9.132c-1.108.329-.83-1.772-1.208-2.719.685-.329,2.243.541,1.793-1.323-1.353-.357-.984.046-1.9-1.519.458,3.165-1.826,7.013-3.156,4.306.5-.741.756-2.248.263-2.873-1.084-.052-1.279,2.405-1.835.181,1.767-.307-.171-1.784-.452-2.236l-.106-2.836c1.4.086,3.079-2.224,4.018-.978-.106,1.295-2.015.126-1.773,1.882,1.324,1.436,2.151-.028,3.362,1.375a2.829,2.829,0,0,0,1.043-1.818c-.313-.861-1.2-.726-1.188-2.156.47-.012.535.674,1.123.458l-.041-1.138c-.1-.424-.05-1.117-.408-1.1-2.293.634-4.432.443-5.227-1.75,1.64,1.418,1.235-.086,3.306-.335l.062,1.713c1.129-.9,1.22-.255,2.571-.268-1.149-1.532-2.009-1.237-1.985-3.792-1.262,1.793-3.463,1.16-5.118,1.092,2.065.446.6-4.257.588-4.054-1.631.861-.736,5.041-2.851,2.574.96-.311,1.268-1.5.966-3.522-1.214.517-1.238-1.052-1.894-1.519.94-.16,1.247-1.172,1.77-1.892-1.383-1.024,1.681-1.615.263-2.876-1.037,1.12-1.214.9-2.157,1.36-.059-2.642-2.958-3.537-1.318-5.57,1.07.76,1.5-.351,2.961.274.213-1.581-.771-1.073-.818-2.205,1.135-.778,2.47-1.289,3.221-2.6-.455-.283-.883-3.6-.49-3.374.883,2.931,3.212-.231,4.444.689-1.176-.135-.818-2.384-.106-2.836-.972.08-2.281.756-1.9-1.517,1.353.88,2.86-.111,4.018-.984a12.326,12.326,0,0,1,.9,4.475A1.714,1.714,0,0,0,719.841,916c-1.59-.566-.068-2.817-.556-5.069,1.291-.027,1.135-2.039,2.119-2.494.018,2.753,1.291,4.614.23,6.25,1.333.068,1.8.689,2.94-.3.488,3.171,1.525,5.392,3.188,6.515.656-1.067-.567-1.7.65-2.344.414,1.1,1.655.732,1.578,2.7-.94.76-1.649-1.59-1.451.714,2.151.24,2.922,1.953,4.145,2.433-1.223,1.024-3.6,5.007-5.085,2.224-.029-1.132.984-.821.656-2.35-1.185-.544-1.6.52-2.958-.271a5.534,5.534,0,0,0-.263,2.885c.434.037,1.037-.209,1.126.452.139,2.531-1.353,2.83-2.837,3.134,2.036,1.615,2.074,6.059,1.808,8.935a4.487,4.487,0,0,0,2.958.277c-1.312,2.282,1.132,1.089,1.548,2.125-1.146,1.218-.4,1.529.455,2.233.018,1.467-1.4.959-1.383,2.427.665.849,1.767.941,2.284,2.039-.366-2.793-.408-3,.177-5.146-1.362-.259-1.043-3.811-1.959-3.22-.216-1.553,1.344-.664,1.406-1.855-.558-.24-.96-.745-1.516-.984-.027.849.213,2.076-.281,2.3a25.638,25.638,0,0,1-2.411-5.456c2.485-.911,2.151,3.091,4.506,2.4-.641,1.077.224,1.636.476,2.8,1.27.3.381-2.359,1.773-1.891,1.093.409.183,2.082.821,2.2.759-1.27-.39-1.809.257-2.876q-1.706.567-1.548-2.126c1.643-.815,3.052,4.4,4.081.729l-1.838.188c.118-1.809-.951-2.236.26-2.885.8,2.27,1.1-1.384,2.139-1.922-1.022-1.738-1.365-1.116-2.325-3.18,1.01.3-.364-2.657.647-2.353.612.206.768,4.229,1.551,2.129-1.008-1.092-.281-2.381-.854-3.334-1.167-.172-1.454,1.489-1.861-.387.88-2,3.07.689,3.306-.332a8.085,8.085,0,0,1-1.613-3.826c1.365-.292,1.758-1.91,3.238-2.042-.644,3.156,2.027.5,2.29,2.061-.3,2.322-1.5.071-2.916.858.6,1.664.842,1.513.127,3.408,1.516-1.621,2.257.461,1.569,2.694,1.856-2.959,3.614,1.249,6.633-.092-.328-3.205,1.132-.948,1.469-.142-.038-1.018-1.111-3.211-.148-3.98.47-.022.535.671,1.123.455.006-2.15,1.294-2.544,1.3-4.691-.293-.1-.727.055-.756-.5,1.182.56,2.792.36,3.735,1.341-.742,2.851.068,8,1.8,8.935-.567,1.581-3.132,3.242-2.015,5.343.3-1.031.606-2.045,1.773-1.892.139.987-.931,2.931.124,3.408,1.678-1.784.431-4.42,1.61-6.435-.665-.452-1.318-.929-1.209-2.719,1.138.292,1.315-.72,2.181-.8.839-3.7.615-8.867,2.157-11.623-1.3-.2-1.114,2.808-2.166,1.363-.05-1.513,1.117-1.347,1-2.95-.579.006-1.268.2-1.143-1.021.425-.138,1.043-.012,1.081-.683-.414-1.5-1.347-2.082-1.616-3.823,2.751-.406,2.154-4.537.18-5.149.363-2.328,1.262-3.094,2.384-5.374,1.333,2.347.1,3.3.21,5.675,2.834,1.092,1.829-7.4.523-5.746.464-1.464,1.232-1.132,2.186-.794-.393-1.793,1.179-.9,1.016-2.384-.83.246-1.386.006-1.51-.984.458-.63,1.336-.7,1.794-1.323-.721-4.02-.219-4.888-.355-9.655-.718-.75-1.935-.649-2.287-2.055a3.639,3.639,0,0,0,.245-3.445,1.661,1.661,0,0,0,1.448-.711c.334-2.393-.854-2.141-.883-3.906,1.061-.034,2.4-.548,2.966.277-.127-1.067.364-1.295.278-2.307-1.161-.64-1.974,1.879-2.568.249-.142-1.676,1.235-2.128,1.8-1.317.6-3.331,5.413-6.761,1.48-9.836.49-.23.677-.886,1.451-.714-.615-2.5-.307-3.008-1.268-4.438.517-.191.585-1,1.061-1.243,1.022-.578.984.7,1.858.384,1.625-4.165-.662-11.9-3.968-7.588-.083-1.728.233-2.922.978-3.522,1.33.514,2.44,1.387,4.107,1.307,3.011,5.109,5.351,11.737,1.726,16.926-1.336,1.907-2.689.458-3.185,3.746,1.664-.338,2.172-1.064,3.33.228-.629-4.632,4.58-1.283,5.776-3.426.573.612.517,2.325,1.554,2.128.753-.406,1.143-1.313,1.773-1.885,1.469,1.605,3.8-.1,7.026.44.021.56-.275.7-.328,1.169,3.823-1.51,7.6,1.624,10.983-2.233,1.5.2,2.234,1.747,4.107,1.3a12.839,12.839,0,0,0,.878,3.909c4.931-7.071,2.03-22.718-5.25-22.853-3.8-4.288-8.247-6.4-13.479-5.5-.591-1.642.228-1.965-.491-3.374-2.745.756-4.258-.64-5.274-2.9-.18,1.725-.8-.464-1.469.145a13.176,13.176,0,0,1,2,4.368c-3.915-.031-4.988,3.688-8.412,1.981.721-4.949,3.761-6.721,3.59-12.9-.428-1.683-1.994-1.366-1.986-3.793a1.679,1.679,0,0,0-1.451.707c-1.2-3.888-3.823-3.737-6.722-2.178-.455-1.9-.157-2.7-1.208-2.725-.523-1.793,1.176-.554.653-2.347-.293-.1-.446-.437-.411-1.1a1.67,1.67,0,0,0-1.448.723c-1.492-4.546-9.96-4.62-5.957-11.38,1.158-.006,2.683-.655,3.33.237.443-3.439,3.129-.461,4.332-2.716-2.6.142-3.448-1.341-5.123,1.086.331-3.568-1.714-4.245.157-5.718a5.011,5.011,0,0,1-3.4-1.938c1.061-.594-.529-1.387-.1-2.842,1.888.418,2.225-1.277,2.857-2.565.795,2.236,2.621,2.67,4.536,2.965.035-.68-.121-1.609.307-1.741a2.931,2.931,0,0,0,3.744,1.338c-.357-2.842.591-4.223-.23-6.253,3.33-1.716-.6-7.111,2.609-9.375-1.678,3.362-4.249-.523-5.437,2.824-.8-1.636-1.513-3.414-2.739-4.288-.059,4.6-4.326,2.125-4.825-.661-1.164.741-2.139,1.753-3.23,2.6-.015-.566-.322-.643-.408-1.1.408-2.291,1.457-2.879,2.47-3.1-.656.145-.88-.467-.795-1.624-.795.384-2.331,1.612-2.6-.314.9-.858,2.751-.043,2.169-1.35-1.944,1.3.3-1.965-1.229-3.3.863-1.436,2.163-.221,3.312-.329.417-1.467-.251-1.759.284-2.313,3.758.314,6.084-1.08,8.462-.84-1.46-.4-.024-2.777,1-2.953.428,2.313,1.817-.781,2.621.883-.8,1.452-1.155.984-2.556.818-.464,1.75.369,1.907-.245,3.451,1.483.766.041-2.464,1.022-2.384.55.04,1.35-.341,1.492.418,0,.9-.922.541-.677,1.778,1.817-.148,1.864.987,1.6,3.267,1.067.1.886.434,1.9,1.52.041-1.089-.461-1.212-.455-2.233.464-.634,1.339-.7,1.8-1.326-.883.953,1.279,3.346,1.9,1.523l-1.167-1.6c2.006-.255,2.547,2.5,3.72.769-.52-.092-.464-1.2-.795-1.624.836,1.076,2.3-.037,2.535-1.4-.854.255-1.542,1.363-1.864-.387,1.69-1.369-.9-6.881-1.613-3.823,2.972-.508.165,5.072.777,1.055-1.2-.381-.437,1.929-1.412,1.852-1.176-6.124,2.127-3.14,3.064-7.148-.854,1.116-1.994,1.775-2.946.3-.641-5.561-3.72-8.6-6.586-8.471,1.7.344,1.418-2.012,1.711-3.583-1.613.314-1.486-1.107-1.986-3.8-1.014,1.141-1.418,1.415-2.576.261-.485.775-.059,2.8-1,2.95-1-.292-2.916-.794-1.944-2.657-1.442.818-3.525-.434-3.968,2.673a2.623,2.623,0,0,1,1.149,1.028l-1.105.1c2.411,4.2-2.771,8.7-4.269,4.42.487.034,2.665-.175,1.451-.711q-1.418.655-1.167-1.593c.612.852,1.681-.44,1.776-1.888-1.46.729-1.669-.717-2.272-1.48-1.69,2.673-5.153,1.64-7.6,4.174-.118-.8-.641-.9-.8-1.627.582-.108,1.282-.052,1.067-1.249-2.083-.332-2.3,1.882-3.986,2.11-.307-1.692-1.545-2.334-.736.065-1.557.5-2.585.077-2.314-2.612,2.089-1.12,1.055-1.092,2.512-1.965-.975-.311-1.321-1.729-2.29-2.049-.03-.935,1.008-.418,1.064-1.243-1.631-1.962-1.492,1.962-2.494,2.529l-1.841.178c-.1-.843.053-2.107-.455-2.233a10.628,10.628,0,0,1-.585,4.054c-.845.261-.476-1.6-1.17-1.6-.035.67-.558.677-1.084.677-.233,1.332-1.25,3.691.5,3.371.458-1.347-1.031-2.033-.086-2.264,1.143-.384,1.1,1.323,1.56,2.119-.789,1.538-3.531-.218-4.417.443.508.006.44,1.415-.331,1.172-.328-1.71.576-1.732.242-3.442-1.7-.344-2.048,1.157-3.271,1.47-.044-.726-.5-.741-.428-1.673,1.158-.972-3.835,2.322-5.047,3.359-.021-.566-.325-.643-.414-1.1.765-.747.768-2.55,1.347-3.552.942-.563,2.083,1.51,2.576-.255-1.507.206-2.308-.818-3.026-1.981,1.7.1.718-2.768,2.06-4.2.827.443,3.049,3.98,2.68,2.578-.29-.1-.446-.437-.411-1.1,2.059-.406,3.676,2.125,4.766-1.04-1.25.366-2.769.757-4.072-.163a2.238,2.238,0,0,1,2.145-1.929l2.275,1.486c.854-1.766-.789-4.891.5-6.327-.954-.182-2.99-1.593-3.7-.2.943-.028,1.324.917,1.906,1.529-3.41,3.743-4.429-3.937-4.305-6.419A4.084,4.084,0,0,1,724.3,718.3c-.083-2.448,2.736-.938,2.449-3.669-.951-.658-1.07,2.362-1.451.711,1.545-.975-.632-3.7,1.324-4.115l.083,2.273c2.024.237.242-4.709,1.652-5.3.372.314,1.891,1.043,1.82-.75.059-1.526-2.042.732-1.537-1.566-.032-.938,1.008-.415,1.064-1.249-1.1-.369.425-1.473-.106-2.836-.954-.135-2.263.391-2.662-2.018.207,3.116-.963,1.91.151,3.983-.65-.646-1.944-1.467-1.214-2.734-3.492.606-6.35-.726-9.228.363-.508-1.732-1.681-2.307-2.006-4.361-.219-1.553,1.35-.671,1.406-1.852-.452-.071-.251-.609-.041-1.135-1.356-.462-2.121-1.956-3.076-3.119,2.257,1.449,1.35-2.221,3.227-2.6-.145,2.1,2.742,2.042,3.362.8-1.356-1.664-3.058-.028-3.422-2.51,1.067.151,2.724.086,2.881-2-1.941.157-2.647-1.836-3.806-3.036.762-.462,5.626,2.82,6.3.5-2.559-1.006-3.749-3.248-4.305-6.4-1.087-.7-1.814,1.738-2.21.215,1.788.243-1.294-2.882-1.516-.987,1.04-.142.792,2.845-.263,2.876.694-1.2-.219-2.694-.517-3.937-2.512.166-4.766.692-6.2,2.337,1.155-.4,1.492,1.089,2.213-.227,1.17,2.338.647,4.014,2.423,5.456-1.61.538-1.516.058-2.538,1.393-.281-1.209.978-1.907-.428-1.664-.943,2.685-3.271,1.495-4.444-.117-1.9,1.166-8.214,5.53-8.468.846a1.53,1.53,0,0,0-1.087.68c-1.229.729,1.034.074.434,1.661-.369.043-.423.51-.718.649-.419-.735-1.513-3.343-1.924-2.095-.7,2.651-6.574,2.9-8.669,5.441-.3-1.338-2.624-2.248-3.008-1.409.293.034,1.185,1.759.431,1.664-.886.831-1.593-1.513-1.844.185a.287.287,0,0,1,.021.566c-1.418-.347-1.637-2.79-2.381-4.315-.251-1.646,1.728-2.98.588-4.048-.818,1.867-4.326-1.618-5.31-3.457,1.5-.5,2.571-3.768,4.355-2.15.505-2.467,1.031-2.827,2.473-3.1-.644,1.073.16,1.75.819,2.2-.488-2.574-.006-3.3.307-1.744-.086-2.648,1.563-.418,1.389-2.418-1.932-1.089-2.169,1.756-3.687.369,1.776-2.571,4.654-1.095,5.333-5.662a5.645,5.645,0,0,1,4.1.726c-1.093-1.784,1.873-1.39,2.145-1.925.281-2.3-1.161-1.6-.883-3.9-.81.332-1.947,1.5-2.231-.35,2.006-1.151,3.543.326,5.132-1.08-.783-.769,1.291-2.162,1.737-3.027-.449-.071-.251-.615-.044-1.138-.833-.157-1.217-1.1-1.906-1.519,1.528-.914-.4-1.289-.476-2.8.239-.935,1.811-.055,1.412-1.858-.742-.486-2.86-1.655-2.949.3,1.909.043.387,3.872-.547,5.186-1.129-2.777-4.2.145-4.964-4.06a11.22,11.22,0,0,1-1.016,2.384c-1.794-.83-3.026-1.526-2.015-4.365-.919.191-1.185-.747-1.536-1.553.458-.621,2.825-.9,2.99.84.919-.151,1.1-1.181,1.844-.181a29.725,29.725,0,0,0,1.344-3.562c1.9.972,1.8-1.064,3.318-.332l-.151-3.971c-.943-.646-1.465,1.821-1.847.178a3.925,3.925,0,0,0,.937-4.654c.52-.711.907-.747,1.474-.148-.736-1.338-1.206-3.156-.171-4.543-.963.258-1.6-.052-1.539-1.556-.7-.058-.789.723-1.457.717a4.346,4.346,0,0,0-.449-2.23c1.2-.5,1.273-2.851,2.018-5.339-.293-.1-.449-.431-.414-1.1-1.383,1.71-1.77-1.695-2.556.821-.777-2.322-.4-2.9-.174-4.537.517.686,1.4.609,1.451-.717-1.421.314-2.7.5-3.593,2.648-.455-.489-2.381-1.433-1.217-2.737.1.434.047,1.126.408,1.1-.573-2.541-1.971-2.836-3.011-1.412.228-2.292-2.334-1.3-1.238-3.291-1.356-.412-.21,2.577-1.383,2.421-2.042-2.63-7.351-1.39-11.044,1.685.2-.169.8.151.759.5-3.283.289-7.41-4.54-9.582.963-.934-.658.6-1.784-.458-2.227.018.572-.617.781-.739.071.287-.148.414-.52.328-1.175.951.2,1.466.821,1.433-1.283-5.008-.246-11.234-.062-15.551-.138-.981-.015-1.941,1.821-2.6-.3-.068,1.123.541,1.067.8,1.624-.632.578-1.019,1.485-1.773,1.892-.662-2.224-3.469-.987-5.162.526-4.465-1.778-7.7,2.538-10.734-.055-2.724,2.128-9.473-1.876-12.489,2.405-.455-.013-.88-.08-.783-1.061-1.536-.3-.585,2.8-2.121,2.5-.845.261-.473-1.6-1.17-1.59-.987,1.452-1.894,1.4-1.389,2.418-1-.489-1.33-2.125-2.322-2.608-.594,2.808-2.175.215-2.969-.268-4.674,2.384-11.237,1.513-17.173,5.752,1.2.335,3.51-.28,1.932,2.086,1.421-2.861,3.56-1.507,4.636-4.472,1.285,1.839,3.54.471,4.769-1.061,1.105.938,1.188.806,2.606.308-.071,1.129.538,1.08.8,1.633-2.059,3.629-4.985,1.323-8.391,3.137,4.137,1.849,6.418.8,10.368.077-.05,1.307.171,2.122.827,2.193,1.548-3.817,8.335-2.4,9.972-.449,2.568-1.51,5.123-4.257,6.982-1.28-.5-1.344,4.447-4.1,4.769-1.055.033.944-1.007.421-1.061,1.246,1.008.671,2.8-2.181,3.732.769,1.055-4.568,6.237.308,8.347-4.266,1,.643,1.2,1.75.866,3.334,1.584-1.415,1.971-1.1,4.335-2.728,1.82,5.626,8.935-1.347,10.864,3.47-4.423,1.372-12.7,1.849-18.275,5.838,2.124-1.236,4.494,1.695,5.853-1.725-.227,3.423,2.851,1.073,3.1,3.669-3-.8-8.335,3.088-9.674-1.292.012,1.993,1.318,1.735,1.607,3.254-2.783.929-4.7-3.725-7.369.747.34-1.83.115-1.522-.479-2.808-3.04,1.119-6.669.578-8.5.292-1.241-.194-2.556-2.064-3.776-1.9-1.1.16-1.785,1.409-2.9,1.44-.842.025-3.7-1.655-2.644-1.44-1.6-.332-3.829-1.079-5.138,1.1.062-2.55-3.182.708-3.04-1.972-1.341.323-1.4,2.405-3.25,2.039-.417-1.495-1.028-2.648-2.322-2.608-2.884,1.141-5.608,3.82-9.907,2.159-.033.67.13,1.6-.3,1.735-3.037.517-5.576,4.094-7.393.182-1.2,3.4-2.94.36-4.423.455-1.779.123-5.771,3.983-5.924.04-.52.726-.337,2.408-1.38,2.421.1-1.793-.99-1.5-1.563-2.122-.948,4.365-4.89.831-6.175,2.919-3.416-3.509-7.047,2.171-10.711.526-.071-.889-.032-1.969-.807-1.633.165,1.316.883,2.371-.254,2.882-1.661.48-2.251-.914-3.386-1.363.106,1.415.777,1.7-.275,2.31-.91-.547-4.955-2.522-5.183-.04-4.742.258-8.273-.391-11.8,1.227-.615-2.633-4.051-.065-5.942-.532-1.081-.261-1.486-2.147-2.695-2.571-1.052-.363-3.4.79-5.162.538-3.817-.557-4.928.692-8.87.351,0-1.076,1.2-.523,1.04-1.821-1.279.243-1.324,2.156-2.491,2.544-.774-1.692-4.476.606-3.43-2.5-2.086-.138-1.734,3.021-3.575,3.217-.875-.077-.765-1.895-1.912-1.51-.263,1.258-.824,2.11-2.142,1.938-.174-.8-.482-.917-.068-1.707-4.677,3.156-5.587-.658-10.019-.67.16,1.47.236,2.827-1.014,2.387.363-2.089-2.848-2.556-4.219-3.552-.192,2.162,1.974.185,1.59,2.685-1.309-.56-1.708-1.575-2.187.8-.476-1.141.086-2.153-1.223-2.719.139,1.612.174,3.085-.99,2.953.239-1.64-.582-1.424-.485-2.8-5.413,3.98-13.048.068-20.6,3.282-3.392-.483-8.645-2.682-11.452.634-4.3-1.412-7.331.492-11.8,1.239-.836-1.239-1.655-1.882-2.63-.861.573.074.092.929-.319,1.169a19.464,19.464,0,0,0-1.938-2.07,1.711,1.711,0,0,1-1.43,1.289c-1.386-4.586-3.525,3.639-6.314-.474-3.859,4.844-11.967-1.07-14.948,5.564,1.572.658,1.669-3.411,2.9-1.455-2.29,6.207-5.773,2.654-10.132,5.638a3.487,3.487,0,0,0,.443,1.664c-1.445,1.75-4.923,1.845-5.945-.511-2.136,3.808-7.407.32-10.666,1.689-.251-2.2-1-1.833-1.108.117-.381-.956-.248-2.82-.88-3.328-.931,3.74-4.964-1.175-6.172,2.934-1.941-3.011-4.716-.9-6.763-2.128-.552,2.753-3.853,2.464-5.457,2.3-.035,1.083.467,1.2.467,2.23-1.206-.372-.7,1.55-1.4,1.861-2.11,1.061-2.257-1.722-3.708-.175.464-.145.322-3.513-.077-1.7a3.863,3.863,0,0,1-5.38,3.992c.357,2.325-1.324-.452-1.8,1.335.095,1.664.937,2.024,1.6,2.691a4.878,4.878,0,0,1,.665-1.787c1.5.815,2.364,2.762,3.862,3.577-.978.114-2.186-.086-2.163,1.372,3.362-.4,4.139-.981,7.348-1.353-.1,1.793,1.058,1.393,1.229,2.719,1.282-.415,1.711-1.975,2.851-2.59,1.489,2.577,5.209.372,7.549,3.183,1.457-.972,3.312-3.731,4.048-.431,1.173.142.913-1.633,1.779-1.9.742.317.038,3.18.878,3.331.065-1.581,1.076-.772,1.746-2.47.718,1.987,2.642,1.852,3.144,4.235-1.04.76-3.758,2.042-2.408,4.242,1.888-6.585,7.744-5.149,8.888.209,1.3-.2-.863-1.8.3-1.735,1.105.686,2.03,1.71,2.036,4.343l-1.474.157c-.071,5.543,2.4,4.189,4.639,4.641-1.185,4.829-4.193,2.3-7.688,1.953-.52,2.006.115,1.7.857,2.762-2.446,3.251-6.267-2.593-8.424,2.024a9.365,9.365,0,0,1,3.389,1.363c-6.595.157-9.721-1.009-16.283.015.05-.818.564-1.018.662-1.781-1.554.412-1.921,2.408-3.59,2.667-.086-.661-.006-1.615-.443-1.658-.056.889-.789.47-1.1.111-.248,1.861,1.244.652,1.2,2.15-2.21,2.654-5.058.252-8.031,2.574-.7-1.615-2.461-1.353-3.439-2.485-.381,2.556.523,3.525-.907,4.672-.807-2.482-2.588-4.878-.3-6.822-.609.058-.272-1.553-.807-1.63.222,2.98-2.119,2.51-3.953,2.71.39,2.47-2.284,2.9-2.532,1.418-.26,1.246-.824,2.1-2.136,1.935-1.548-2.8.869-3.02.931-4.094-.984.455-2.952-.406-3.292.929,2.243.5-1.782,1.076.148,3.4.768.065.257-1.326,1.4-1.861.281,2.15-.375,3.057-1.327,3.568-1.327-.578-1.442-4.226-1.693-4.958-.869.96-2.591-1.1-3.634,1.532,1.729-1.685,4.388.409,3.463,3.051-1.519.317-.585-2.153-1.206-2.153-.712.757-3.348,2.15-2.653-1.424-1.539.981-1.3,2.258-.564,4.051-1.72.418-1.578-1.762-.86-2.765-.99.523-.792-1.049-1.522-.975-.762,1.716.745,3.1.2,4.543-.768-.074-.8-1.436-1.211-2.15-1.3.557-1.764,2.258-3.6,2.094-.892-3.762-2.3.228-3.835-3.011.112,1.421.78,1.7-.266,2.313-.768-.077-.44-2.076-1.211-2.156.118,1.409.192,2.753-.606,2.919-.035-.341-.089-.661-.393-.529-.012-.9.919-.541.659-1.781-4.544,2.166-5.481,2.5-8.574-1.365-.458,2.491-2.609,1.8-3.658.966.4,1.778-.5,1.821-.612,2.919,1.761-.744.928,1.553.863,2.759,1.371.717,1.906-.246,3.365.787-.16-1.818,1.253-1.532,1.743-2.476a6.991,6.991,0,0,0,1.6,2.682c.08-1.356,2.615-2.141,2.9-1.452-.281,1.4-2.695-.058-2.107,2.51,1.634-1.295,1.59.64.44,1.661,4.689.037,4.45.163,8.471-.9.248,1.32-.8,2.5-.219,3.445.517-3.174,3.1.474,4.84.618-.547.16-1.371-.055-1.451.729.588,1.664,1.037-.258,1.551,1.541-.561.2-.012.944.42,1.092.517-1.812.222-2.23.585-3.476,3.2.144,8.164,1.12,9.532,6.391-1.6-1.563-2.928,1.621-4.837-.621.207,1.35-.623,1.307-.245,2.879,2.3.723,3.826.5,6.361,1.6-.381.861-.337,1.427.443,1.667.009-.7.05-1.356.688-1.218-.384.861-.343,1.427.434,1.667-.225-1.095,1.613-2.012,1.82-.769-2.163.609-.2,3.531-1.646,4.74-1.714.206-1.084-3.242-1.938-2.064.517.326-.245,1.759.839,2.187-.57.357-1.879,2.4-2.553.84.736-1.292,0-3.1-.886-3.325a5.988,5.988,0,0,1,.2,4.546c-1.684.117-3.782.975-4.128-1.273a3.217,3.217,0,0,0,.638-2.353c-1.347-.738-.136,1.956-1.031,1.824-.544.157-1.368-.061-1.445.726.792,1.3,1.534-1.126,1.888.938-1.3-.32-1.374.993-2.55.846.021-1.673-.907-1.658-.889-3.328,1.117.307.331-2.215.272-2.313.109.938-2.6.683-1.028,1.821-.021-.563.615-.781.736-.074-.612.077-.136,1.593-.662,1.778-.582-.6-1.539-.541-1.918-1.507-.035-.932,1.008-.428,1.058-1.252-.969-1.932-3.165,4.546-3.708-.175.52-.36,1.932.47,1.817-.76-1.288-1.722-2.562.141-4.125-1.273.16,1.292,0,2.147-.638,2.353-.065-1.677-1.56-2.144-2.26-.9-.857-1.095.242-1.873-.493-2.8-.124,1.535-2.121,1.43-2.133,1.941.452.012.875.071.786,1.058-.606,1.129-.954-.36-2.21.234-.165,2.132,1.619.812,1.941,2.076-2.148-.372-.293,1.741-.293,1.741-.783,2.264-2.083-.723-2.308-2.036.511,2.193-.934,4.069.57,4.506.423-2.411,1.409.864,2.523-1.421-.047,1.316.186,2.132.836,2.2.845-1.227-.724-2.362.612-2.913,3.085.664,1.117,5.724-1.25,5.26.957,1.1.821.729,2.24.335-1.152,1.975.756,1.255,1.2,2.153-.877,1.32-3.749-.052-3.977,2.138,2.346-.114,4.459-.729,5.549-.031-1.356,3.125-4.272,1.63-6.87,3.6.047-1.307-.183-2.122-.833-2.193-.827,1.209-2.742.944-3.608,2.1-.316-2.445-2.4-1.126-3-.824.337.474.225,4.257,1.229,2.725-.739.249.006-1.649.3-1.741a1.522,1.522,0,0,0,1.081-.692c.635,2.664,1.959.3,2.7,2.565.033-1.08-.473-1.209-.47-2.23,3.953,1.43,4.976.827,7.461,1.476,1.9-2.064,5.8-2.974,7.733-.827.1-.993-.615-1.4-.077-1.7.8,1.922,1.864.218,3.339.209.2,1.07.233,2.43,1.2,2.156-.615-2.725,1.658-1.891,1.817-.763.065-.452-.038-1.123.322-1.178.49,1.621-1.678,2.3-.618,2.925.05-1.19,1.625-.317,1.4-1.87-.505-.32-.736-1.141-.836-2.193l2.949-.32c-.662-1.959.245-3.15-1.279-3.851-.092,1.378.727,1.156.493,2.8-1.135-.089-3.247.5-3.043-1.959.174,1.753-4.2-1.034-2.5,1.981a1.452,1.452,0,0,1-1.525-.975c-.292-1.818.136-2.67.2-4.011a6.015,6.015,0,0,1-2.284-1.47c.612-.077.139-1.6.662-1.778.948.634,1.457-1.833,1.841-.2.006,1.077-1.2.523-1.034,1.818,1.146-.178,1.135,1.676,2.63.864.523-3.107,5.93-4.309,5.156-.554,1.563-1.3,2.508-1.126.981-2.959,1.424,1.015,3.744.058,3.262-1.492.089,1.07,1.238.261,1.179,1.587-.2,1.15-2.21-.117-1.764,1.9.118,1.624,2.5-.754,2.627.861-.975-.062-.2,2.236-1.4,1.864.771-1.732-.615-1.827-1.522-.978.635-1.073-.041-1.981-1.179-1.587,1.087,1.793.688,2.43-.585,3.482,2.181-.221,4.379.5,6.305.467-.739-.185,1.155-1.236,1-2.39,2.774-1.027,3.537,1.5,6.311.464-.987.957.739,2.254-.248,2.882.03-1.726-2.916-1.31-2.993-.821.452.071.254.6.047,1.132,3.445-2.076,4.338,4.69.91,3.9a4.454,4.454,0,0,0-.464-2.236c-.745.437-2.6-.637-2.16,1.372,2.828-1.184,1.055,2.756,3.141,4.232.434-.3-.2-2.427.978-2.959.857,1.375-.2,3.264.544,3.937,1.33-.8.523-2.442.957-3.522,1.424.178,2.588,1.842.86,2.759a1.515,1.515,0,0,1,1.888.932c-.485.058-.292,1.033-.691,1.224a31.456,31.456,0,0,1-8.905-.763c.585-.474,1.652.96.786,1.061a2.648,2.648,0,0,1-2.281-1.47c.2,2.295-.08,1.3-1.055,1.252-.033,1.089.467,1.215.467,2.23-2.293.178-4.057,1.888-5.174-.013,1.117-1.633-.479-3.611-.937-4.457,2.417-2.27,6.072.8,7.75-.267-.727-1.357-2.464-.929-3.067-2.525,2.718-.148,3.64,2.787,5.3,2.861-.254-3.017-1.924-3.528-3.17-4.8-.685-3.27,3.082-1.126,3.877-4.408a8.423,8.423,0,0,0-5.369,4c-1.406-2.741-2.76-2.089-4.934-2.894.966,2.218.946.314.517,3.371.872.689,1.315-1.609,1.471-.16-.278,1.409-1.832,1.11-2.11,2.51-.824-.92-1.146-1.166-2.234-.329.056,1.381,2.225,2.113.91,3.894-1.557-1.538-.564.182-2.184.806-1.232-.514.006-1.907-1.572-2.113.263,1.812-1.779,3.257-2.506,1.978.23-1.1,1.081-.51.3-1.741-.963,2.525-2.6.612-2.447,3.113-1.658-1.7-2.127.787-4.1-.7-.4,1.467.272,1.756-.266,2.31-.969-1.827-1.858,2.43-2.946.32.434-.138,1.052-.018,1.081-.686-2.142.784-.033-2.144-1.572-2.122-.748,3.672-6.288,4.1-4.861-1.184.774.4,2.263-.741,1.055-1.252-.03.843-.869.615-1.448.717-.68,2.9-1.262,4.614-2.819,3.159.239-.634,1.321-2.765.222-3.445-.047,2.8-1.468-.551-2.237-.332.5,2.276-.269,2.848-.951,3.525.251.821,1.953,2.171,1.229,2.722-.922.034-1.188-.935-1.841.2l-.1-2.279c-2.8,3.328-4.725,1.458-7.727.83-.284,2.045-1.371.062-1.791,1.338.334.126,1.678,1.36.81,1.621-1.587.606-2.139-2.639-3.359-.778.047-1.3-.183-2.128-.842-2.2.059,2.147-1.643.575-.6,2.922-.81-1.135-1.454.317-2.184.809-.9-.517.671-2.7-.517-3.377-.73,1.91-4.042.188-4.662,3.371-.739-.935.363-1.713-.5-2.805-1.259,3.5-3.882,1.052-6.125,3.525,3.02-1.436,7.307,2.107,9.91-1.658,6.03,3.734,12.088-.523,18.6,2.565.1-.984-.612-1.4-.08-1.7,1.655-.354,2.579,1.726,4.1.7.207-2.682-1.2.508-1.155-1.021,1.188-2.042,2.615-.867,4.391-1.043-.16,1.966,1.723,3.424,2.308,2.042-.9.028-.16-1.87.3-1.747,1.117,1.113,2.068-1.258,2.621.858-1.173.2-2.839-.258-2.5,1.981,2.322-.034,3.362-.535,4.465.661-.121-1.233.222-1.836,1.028-1.821,1.347,3.017,4.069-.775,5.1-1.692a9.1,9.1,0,0,0,2.358,3.171c.1-.987-.612-1.4-.074-1.7,1.155-.009,1.566,1.3,2.3,2.03-.024-3.094,1.158-1.193,2.845-2.584-.056.812-.561,1.018-.665,1.775,1.259.228,3.389-1.092,4.077.132.16,1.107-.452,1.184-.662,1.784.369.572,1.362.034,1.176,1.59.623-.591,1.829-.394,2.16-1.375-.7-1.212-2.154-1.08-2.358-3.174,1.4.7.691,1.15,1.445-.714.278,1.658,2.042,1.861.52,3.359.975-.092,2.154-.544,2.254.9-.8.526-1.383,1.344-2.523,1.406.922,2.1-.044,2.593-.954,3.525,1.2.763,1.85-.6,2.5-1.981-.777-.231-.815-.8-.44-1.664.768.748,1.262-.723,1.888.947.03-.858-.225-2.085.269-2.313a2.578,2.578,0,0,1,1.155,1.012c-.857,3.549-2.65,4.635-4.955,5.1-.165.849.555,2.888-.242,2.876-.041-.751-.668-.446-.786-1.058-.411-1.975.815-3.02-.517-3.365-.3,6.1-5.245,4.081-6.893,3.02-1.158-.049,1.011,1.541-.293,1.747-1.545-.283-3.43-1.489-4.465-.664-.083-.658,0-1.624-.44-1.658-.96,4.278-6.423-.6-7.7,1.39.393-.071.945.166.39.523-1.271.218-.709-2.8-1.962-2.636-.254,1.36,1.395,2.3.5,2.793-.9-1.9-.479.089-1.451.729-.724-1.2-2.068-.861-1.938-2.073-2.553,4.14-5.841-.538-8.122.3-.186-2.113-1.607-2.046-2.7-2.565-.047,2.122,1.817.861,1.968,2.639-3.492-.671-8.066,2.261-11.281,4.066-.334-1.526.683-1.224.638-2.353-1.4-.277-.706,2.258-1.737,2.47-1.9-2.279-4.231-5.484-5.986-1.63.553.037,1.347-.357,1.5.4-.981.074-3.72,3.168-5.15.572.334-.806.254-2.156,1-2.4a1.448,1.448,0,0,0,1.525.975c-.257-1.759.919-1.606.975-2.959-1.43-.667-.638,1.639-1.791,1.338-.1-1.541.559-1.209-.1-2.267-.449,1.313-2.851,1.778-2.083,3.076-1.076-2.405-3.794,1.418-5.224-1.141.284-1.449,1.965,1.32,1.785-1.335a3.829,3.829,0,0,0-2.943.326c-.154,2.513.709-.535.789,1.055.39,2.5-3.407,2.162-2.423,3.691,2-2.421,5.2-.04,5.443-2.316.892,1.485,2.523,1.655,3.12,3.654-1.333.055-1.04.317-3.286.929-.352-1.695-3.173-5.4-2.993-.809,1.25-.587,1.643.357,1.915,1.5-1.3-1.237-1.557,1.913-2.943.32.334,2.51,3.2.32,3.682-.4.012.729-.437.837-.293,1.747,4.583-1.464,7.623.286,11.556,2.156-.068-2.944-2.55-1.615-2.777-4.26.369-.043.42-.514.709-.655.145,1.784,1.294,1.787,2.65,1.427-.05,1.938.745,2.356,1.256,3.3,1.5-3.9,4.846-1.729,6.988-.76.027.754-.621.594-.683,1.218,2.325.6,3.664.3,3.995-1.566-.095,1.175,2.237-1.5,2.6.286-.186.378-1.418,1.873-.266,2.307.544-1.753,2.3-1.885,3.971-2.132.183,1.307.485,2.405,1.226,2.722,1.014-1-.883-2.571.222-3.454.969,2.221,3.262.111,4.562,2.943-.287-1.458.053-2.064,1.025-1.827-.086.661-.553,3.829.1,2.276-.387-2.03,2.721-1.676,2.574-.283-2.975-.077-1.09,3.4-3.5,4.371-.021-.566-.325-.643-.414-1.095-.044-1.132.972-.831.629-2.347-1.723-.111-1.7-1.507-2.94.314-.7-1.138-1.318-.855-.857-2.768-1.374-.062-.561,2.817-1.714,3.045-.869.1-1.126-.864-2.234-.335l-.074-1.7c-1.864,1.277-.863-.1-2.5,1.981-1.486-.6-1.867-2.215-2.015-3.777-.709.474.233,3.156-.585,3.485-2.062.049-2.925,1.249-4.435-.1-.038-.938,1-.431,1.052-1.255l-1.474.16c-.139,1.83.771,1.683.127,2.842,3.894-1.962,7.272,1.378,10.666-1.147a5.232,5.232,0,0,1,.5,2.8c1.755-.6,3.315-1.07,1.022-1.821.532-.357.892-.941,1.421-1.295.118,2.5,2.142,2.645,1.888.935.13,2.005,1.164-1.335,1.132.452.609,1.772-1.808,1.535-2.842,2.587,1.335,1.559,3.788-.646,5.493-1.163-1.276,2.568,2.695-.243,3.014,1.39.018.978-2.34,1.4-1,2.387,1.336-1.886,3.132-1.061,4.264-3.876,2.346,3.688,6.211-4.054,9.269.71.446-1.772,2.364-1.027,3.312-.354-.095,1.3-2.172-.071-1.377,2.427a3.537,3.537,0,0,0,2.476-2.544c.756.086.789,1.455,1.545,1.544-.056-1.034,1.767-2.172,1.788-1.332-.03.671-.55.677-1.076.686a2.2,2.2,0,0,0,1.2,2.15c.027-.858-.222-2.079.272-2.313.685,2.541,2.887,3.675,5.026,5.167-.124-2.87,2.2.864,1.74-2.467-1.306-.016-3.3,1.787-1.861-.363-1.09-1.289-2.2,1.037-2.966-.255l-.05-1.144c1.891-.474,3.5,2.756,5.2.587-.437-.04-1.043.209-1.129-.452.372-.04.42-.508.712-.646.718.154.384,2.171,1.542,1.544-1.244-3.024,3.785-.025,3.5-4.359.842,2.033.659-.443,2.21-.243.024.569.328.637.42,1.1.062,1.046-1.805,2.131-.617,2.922.154-1.4,2.39.006,2.133-1.944-.582.477-1.646-.956-.786-1.061,1.365-.732,1.805,3.282,2.993.824-.4-.086-.922-.84-.417-1.1,1.9,1.658,2.978.341,4.828.63-.948.855-2.511.889-2.845,2.584a2.077,2.077,0,0,1,3.02,1.384c.233-2.039-1.07-2.82.219-3.442.2,1.689,2.051.446,2.3,2.033-.724-1.941,1.111-3.063.225-3.448-.969,2.11-.3-1.4-.783-1.058.2.91-1.965,1.141-1.841.2.945.157,2.615-1.4,1.767-1.895.018,1.39-1.211.249-1.126-.458.718-1.316,1.061.175,2.2-.231.307-1.1-1.182-1.781-.1-2.267,2.189.243,3.888,1.842,6.669.421-1.2,1.529,2.024,2.061.883,3.325-1.013-.794-3.1-1.393-3.652.966,1.808-.806,4.949-1.28,6.3.471-2.257.834-2.769.406-4.465-.67.228,3.079-.449,3.74-.81,6.939,1.185.3,2.576-1.827,2.133-1.944-.954-.652-1.058,2.368-1.448.72.092-1.652.662-2.67,1.72-3.03.892,1.8,1.542.243,2.987.83-.485,2.279,1.008,1.067,1.2,2.15-.656,1.135-.916.154-1.835.191.455,3.537,1.466-.1,2.574-.267a4.674,4.674,0,0,1-.272,2.307,1.7,1.7,0,0,0,1.424-1.289c-1.672-.591.089-5.01,2.036-4.211.594,1.279.818.972.488,2.8.7.058.783-.723,1.445-.72-.012,2.058,1.519,1.387,1.616,3.254,1.371-.815,1.758-.141,2.133-1.935-.4-1.63-1.359-.025-1.516-.987.047-.88,1.725-2.221,2.184-.8.047,1.836-.819,3.07.877,3.328-.963-2.916.532-.421,1.028-1.821a5.036,5.036,0,0,1-1.268-3.851c2.127-.437,3,.769,4.086.7-.922.707-2.443.628-2.869,2.012,1.717,1.956,4.258-1.347,5.593,1.129-1.693-1.39-1.507,1.516-2.482,2.535-.349-.8-.626-1.738-1.539-1.541-.112,2.734-.461.855-1.445.72.118,1.23-.228,1.836-1.031,1.818-.919-1.076-.644-.744-1.915-1.507.393,1.956,1.672,2.338,2.379,3.74-.34-1.879.674-1.941.981-2.953.869.089.9,1.67,1.566,2.113-.168-1.479.035-2.455,1-2.39.937.664-.591,1.787.467,2.233a2.553,2.553,0,0,1,1-2.39c.245,1.765,2.278,2.393,1.64,3.823,1.687-.929,4.069-3.491,5.909-.052-.662.618-1.3-1.575-1.471.154a.289.289,0,0,1,.021.569c-.869.311.1-2.605-1.176-1.59-.39,2.864-3.2,2.455-4.633,3.919.189-1.56-.807-1.028-1.173-1.59.547,1.369-1.655,1.556-.275,2.31.582-2.125,1.058.9,1.864.375.233-2.691,2.512.606,3.995-1.562-.027.858.219,2.082-.269,2.307-.236-.141-1.474-1.261-1.474.157.875.089,1.418.757,2.6.292-.092-1.006.307-1.359,1.055-1.255-.493-1.618-.31-2.076.615-2.91.263,1.769-.768,2.411.49,2.8a19.633,19.633,0,0,1,2.331-5.942c-.346,1.827.638,1.316.833,2.193-.284.163-.724.089-.712.643,1.7-.775-.523,1.974.833,2.2.372-3.879,1.161-1.055,2.426-3.694-.23,1.867-.263,1.218.464,2.239-1.95.277-.29.135-.292,1.738-.372.046-.423.517-.712.652.517-1.645-1.658-1.406-1.5-.418.83.166.417,2.984.142,3.414,1.593-1.2,2.63-1.252,3.191-3.2,1.658.329,3.25.609,2.715,3.144-.913.191-.946-1.181-1.539-1.556-1.474,1.55-3.046,2.147-3.927,3.27.987-1.015,1.123,2.344.464,2.236-1.132-.658-2.774-2.325-2.594-.3-.742-3.137-3.138-1.6-3.5-4.189-1.291-.138-1.223,1.56-1.74,2.467-.1-1.455-1.409-.772-1.915-1.507.665-1.117-.393-1.895-.854-2.765.03,1.753-2.6-.794-1.445.716a2.706,2.706,0,0,1,1.149,1.024c-1.167-.154-1.4.963-2.157,1.369-.062,1.938,1.663.723,1.247,3.294-.668-.246-1.536-.132-1.885-.95.866-.421-1-.99-.833-2.19-1.542.886-1.82.151-3.676.388.074,3.008,1.666.169,3.357.794.189,4.34,3.25,3.617,3.989,6.985,1.217-.658.957-2.688,2.181-.8l-.118-2.833c-1.17-.16-.756,1.83-2.157,1.366-.514-.52-1.395-.4-1.545-1.544.99-.289,1.274-.975,2.893-1.452-.091,2,1.823.449,1.932,2.079-.635-4.057-3.238-1.892-4.645-5.21,1.918.711,4.515,1.037,6.489,5.017.683-.212-.251-.914.319-1.175.024.572.671.646.736-.08-.706.351-1.947-1.329-1.179-1.587.981.714,2.37.7,3.037,1.966-.053,1.181-1.344.673-1.4,1.855.558.234.966.738,1.519.984-.012-1.138.869-3.765,1.77-1.9-2.169,1.061,3.658.855,2.37,3.746.951-.329.951-1.932,2.523-1.409-.78,2.47.541.963,1.2,2.153-3.992,1.283-9.753,2.648-11.124-1.113-2.355.723-3.342.381-4.751,1.08a3.836,3.836,0,0,1-.3,1.735c1.267-.2.937,2.418,1.959,2.651-.325-1.658-.564-2.753-.145-3.4.981.366,1.944-1.935,2.574-.274-.408.7-1.274.781-2.184.8.55,2.107,2.689,4.592,4.187,2.984-.94.034-1.891.092-1.909-1.51,4.828.3,10.684-2.953,11.243,3.943.615-2.215,1.643,3.109,2.594.3-.369-.569-1.362-.031-1.176-1.59,1.761-.418-.443-.16-.071-1.7l2.21-.228c0-2.452-1.811-1.686-2.006-3.786,2.68,1.541,7.121,8.2,7.469,2.061l.739-.071c.532,1.353-.987,2.473.115,2.836.286-.867.476-1.858,1.4-1.858.059,2.522,1.767-.661,2.618.858-1.327,2.716-4.337,2.731-6.908,2.445a1.678,1.678,0,0,1-.691,1.218c-.585,2.3,1.6,2.787.535,3.937-.8-1.049-.393-1.095-1.1.108a2.609,2.609,0,0,0-3.035-1.956c-.053,3.079,1.3-.1,1.909,1.507-3.572,3.19-5.253-.449-8.82.932-.4,2.611-2.009,1.489-1.672,4.165-.49-2.138-1.758-3.4-.192-4.543-1.256-.4-2.588,1.8-1.74,2.47.547-.477-.765,1.51,1.173,1.584a3.792,3.792,0,0,1-2.13,1.938c-.736-1.006.177-1.049-.118-2.833a3.7,3.7,0,0,0-2.574.271c-.877.766.839,2.061-.248,2.879a7.674,7.674,0,0,0-2.689-2.565c-1.646,3.7-4.846,1.63-7.3,1.9.142-1.332-.759-3.848-1.2-2.141a6.691,6.691,0,0,1,1.244,3.285c-1.365-.858-1.64-1.741-2.964-.258-.077-3-1.867.188-2.671-2-.16.849.558,2.894-.242,2.885l-.739.071c-.183-2.036.564-2.8.547-4.62-1.433-.689.036,2.547-1.4,1.861-.23,1.639.585,1.415.488,2.805-1.622-.394-3.436,1.824-5.188-.6-.278,2.227-1.439,1.215-2.136,1.938-.6-.357-.033-2.787-1.2-2.156.13,1.067-.361,1.3-.272,2.307.455.022.878.083.783,1.067-.993,4.069-4.615,1.47-6.586,1.273-.493-.052-3.454,2.956-2.254-.9-.94.689-2.355,1.16-2.278-1.47.78.249,1.108,1.3,2.254.9-.068-1.7.872-2.036.951-3.528-1.643.6.5-1.621-1.146-1.021-1.123.326,1.09,2.787-.219,3.448-.514-.517-1.392-.384-1.548-1.541.514-.2.369-1.3.662-1.781-.694-.243-2.695-1.267-2.961-.255.266.957,1.74-.227,1.882.935.094,1.073-.6,4.7-.313,1.175-1.362-.046-.2,3.3-2.113,2.513-.183-.969.491-1.52-.068-1.707-1.206.065.186,1.473-1.008,2.4a3.562,3.562,0,0,1-1.2-2.162c-1.247,1.747-4.45-.868-2.476,2.547-.665-.237-1.534-.12-1.885-.932,1.046-.609.375-.9.269-2.31-2.033.551-3.277-.308-4.825-.618-.449,1.341,1.04,2.024.1,2.264-.157-1.449-.6.849-1.471.157-.1-.837.041-2.107-.464-2.23-1.51.221-3.3,1.366-3.72-.741.514-.366,1.921.464,1.808-.766-1.545-1.556-2.455,1.707-3.676.4l.1,2.264c-1.513-.009-2.721,2.279-3.014-1.381,1.557,1.1,2.863-2.1,2.036-4.214-1.064.046-2.4.566-2.966-.252-.872.858.736,1.642-.266,2.307-1.309-.84-4.512,2.519-6.223,1.246.4,1.132,1.915.277,1.935,2.07-2.5,2.107-5.632-1.35-7.4-.344.582.6,1.536.538,1.915,1.5-1.687.917-3.351-.784-5.924-.5.523-.541.449-1.888.609-2.922-1.77-.428-1.693,1.642-2.476,2.543.928-.391,1.256-.889,1.867.378-.49.055-.3,1.027-.685,1.209-1.569-.028-3.664-2.784-4.267-4.675-.3,3.786,1.791,3.346,2.8,4.835-1.841,1.51-2.485-1.458-4.042.437.31.873,1.785-.326,1.542,1.55,3.034-1.193,6.249-2.882,8.5.221-2.488-.917-.88.455-2.133,1.941-1.117-.089-2.943-2.085-3.38-1.353.293.1.446.434.42,1.1-1.1,1.4-3.224-1.169-2.94.32.632-.1.96.339,1.155,1.015-3.226,1.556-5.053-.886-6.932,1.888-.408-3.759-5.587.935-6.025-2.78,3.64-.4,5.534.083,8.078-.864-.665-1.375,1.146-1.132,1.764-1.9-2.009-2.6-4.772.824-6.562,1.842-.053-.729-.508-.738-.44-1.661,1.38.255,1.531-1.147,2.91-.886-.384-.954-.121-3.051-1.226-2.722-.036,1.076.47,1.209.464,2.233l-2.937.311c-.884-3.786-.038-3.639.041-7.416.47-.019.541.674,1.129.446-.358-4.042,1.788-4.718,3.031-6.6-1.327-1.526-1.247,2.279-3.253,1.495.021-.683.594-1.36-.08-1.707.263,1.772-1.814.4-1.371,2.427a1.529,1.529,0,0,1,1.891.938c-.488.064-.3,1.03-.683,1.218-1.152.609-1.179-.769-1.891-.944-.065.455.041,1.132-.313,1.175-.1,2.285,1.27-.744,1.2,2.159-1.454,3.645.021,7.9-3.395,6.641-.99-2.87-2.47-1.375-4.459-.668a3.879,3.879,0,0,1,.3-1.741c-.816-.132-4-1.4-4.018,1.006.109,1.258.892-.837,1.838-.194-.245,1.852,1.244.64,1.2,2.147-3.15.917-3.64-.191-4.19-2.968-3.439.31-5.224-1.129-10.019-1.2-.446,1.347,1.043,2.033.1,2.276-1.273-.861-1.616.464-3.3.354.369-.858.331-1.424-.446-1.658-1.132,2.039-1.87-1.8-2.154,1.381-.94-.16-1.12-1.682-1.592-2.685-.343.794-.269,2.141-.612,2.922,1.489.415,3.256,1.5,3.091,3.082.736-.637,3.12-1.815,3.649-.969-.993,3.131-9.875,2.562-6.74-2.113a1.7,1.7,0,0,1-1.859-.36c-.343.791-.266,2.122-.609,2.919,1.383-.624,1.474,1.046,1.938,2.07,1.138.286,1.034-1.107,2.178-.815l.1,2.273c-1.138.415-1.56-1.178-1.805.769,1.516,2.054,2.446-4.066,5.088-1.695-1.965-.221-.281,1.513-1,2.39,2.2-.544,7.36,5.137,2.822,5.392-.169,1.932.715,2.005,1.572,2.116-.287-1.458.053-2.064,1.028-1.83.163-1.021-.594-3.288.21-3.448,1.011.338,2.225.849,2.916-.88,6.158,2.415,13.379.274,19.956.7a3.653,3.653,0,0,1-2.94.311c.186,3.3-1.847,1.5-2.127,1.944,1.064.455-1.141.664.077,1.7-2.857.624-5.188-.329-6.9,2.452,2.875-.215-1,3.639.886,3.328,1.232-3.513,3.8-2.965,5.847-1.2.027-.674-.133-1.6.293-1.744,1.244,1.944-1.362,2.113-2.083,3.073a23.726,23.726,0,0,0,4.145,1.842c-.284.864-.473,1.858-1.395,1.864-1.392-.421-1.014-1.113-2.594-.3a3.9,3.9,0,0,1,.29-1.741c-1.078-.031-1.07,1.406-2.154,1.378l-.121-2.845a8.025,8.025,0,0,1-4.231,4.451c2.4.815,5.221,5.429,7.153,3.233.174.96,1.262,3.38.541,3.928-1.566-1.187-1.6-1.775-3.33-.209-.009-.729.44-.836.292-1.747-2.949.292-1.418-3.881-4.583-3.5-.588.987-.83,2.442-1.708,3.039.91.265.177,2.651-.239,2.876-.745-1.1-1.4-1.412-.709.649-1.492-1.224-4.335-.058-5.265-2.288-.071-1.335.558-1.738.216-3.445,1.876-1.738,5.265-.969,7.679-1.4-.092-1.052-.319-1.87-.83-2.19.121,1.234-.222,1.839-1.028,1.824a4.31,4.31,0,0,1-.127-2.848c-.9.194-1.776.3-1.885-.932l1.471-.163c-.021-2.836-2.916-3.774-3.826-3.011a2.421,2.421,0,0,1,1.179,1.59c-.517.194-.576,1-1.052,1.246-1.445-.307-.547-1.934-1.226-2.713-.691,1.618-.381-1.264-.786-1.058-.284.864-.47,1.861-1.395,1.864-.1-.84.038-2.113-.467-2.23-3.274,4.749-5.892-2.621-9.883,1.652-.216-1.452-1.22-1.51-1.938-2.07.189,2.122,1.022,3.082,1.33,4.995,1.593-.292,4.988-.923,5.977,1.621-.765.19-2.222,1.489-2.964-.24-.026.852.228,2.085-.263,2.31-4.066-.861-9.449,2.082-12.9.274.771.065.213,2.479.863,2.753,1.247-2.371,3.114-1.867,4.432.086,2.3-2.082,6.382-1.43,8.755-2.092.26,3.156,3.637,3.522,3.215,5.918,1.011.24,2.881-1.049,3.327.206-1.013.237-.957,1.91-1.734,2.47.922.409,1.649,1.141,2.987.809.018,1.427-.62,1.858.467,2.23,3-.437,6.518-1.563,9.668,1.818-.349,3.3-3.067,1.612-4.3,2.744,1.436.972-1.752.052-1.415,1.3,1.008.012,1.016,3.436.174,3.971-.81-.4-1.362-1.255-1.253-3.288-.931.169-1.885.31-1.758,1.9,2.051-1.224.523,2.965,1.226,2.716a2.833,2.833,0,0,1,1.025-1.815c.254,3.31,1.989.108,2.547-.852,1.208,1.6,5.094-2.488,7.044.96-1.025.794-1.891,1.4-2.907.883a4.832,4.832,0,0,1-2.763,4.291c-.786-1.08.112-1.129.269-2.313-1.034.357-2.331,3.7-3.277.92.644-.071,2.1-1.7,1.389-1.855-1.95,1.855-3.738,5.432-5.638,5.743a4.407,4.407,0,0,0,.464,2.23c-3.292,1.23-6.745,4.644-8.409,1.495-1.217.5-3.436-.36-4.01,1.015,1.306.354,1.46,3.113,2.331,2.6a9.4,9.4,0,0,0-2.78,3.728c-.452-1.649-2.636-.218-3.377-1.335-.328-1.523,1.746.212,1.412-1.3-3.971-3.457-10.563.142-14.5-2.968.747-1.741,3.271,1.292,3.614-1.544-1.454-1.205-3.286-.344-5.236-1.7-.349-2.079.47-2.581,1.731-2.476.154,3.359,4.991,1.11,3.554,5.315,1.7-1.473,3.788-1.99,5.159.009.7-.317.189-2.242,1.395-1.876.157,1.107-.446,1.184-.659,1.793,1.876-2.676,8.758-1.147,11.237-4.094.1,1.046.328,1.867.839,2.19.186-1.347,1.146-1.655,1.336-3-1.336.747-1.232-1.061-1.909-1.5-.095.824-1.782,2.144-2.172.818-.174-1.3,1.031-.757,1.022-1.83-.293-.1-.724.068-.756-.486.275-.163.718-.1.7-.649-1.652.012-3.578,3.792-4.739,1.095,1.392.44.632-1.993,1.365-2.436,1.746,1.153,4.388-1.067,5.082-1.695-2.3.833-2.006-2.965-3.478-3.617,1.35-.975.774,1.486,1.885.935.151-3.34-1-4.343-2.086-5.478,1,.283.653-1.249,1.025-1.821-1-.794-3.026.24-1.968-2.636-1.111-.058-2.822.944-2.984-.815.656-1.261,3.067-.141,2.834-2.6-6.146,7.357-9.266-7.68-15.223-2.319.366-2.7-.934-2.424-1.622-3.242a20.968,20.968,0,0,1,2.34-5.395c.745.987.919-.043,1.832-.2,1.078.864-.038,2.242,1.2,2.15a4.383,4.383,0,0,0-.47-2.23c1.658-.5,2.237.261,4.822.615.517-1.987,1.548-2.051.922-4.1-2.476,1.037-3.537-1.076-5.821,1.781.848-1.264-1.35-5.841-1.968-2.639.555.037,1.35-.347,1.5.412-.024.855.225,2.079-.266,2.307-1.519-.412-2.476,2.008-2.615-.846.517.677,1.395.591,1.436-.732-1.3.08-.006-1.049-1.176-1.587-.845,1.6-3.776,2.067-4.775.523l-.074-1.7c1.687,1.015,2.473-4.008,1.782-1.326-2.751-1.243-3.812,3.82-4.172,5.589-1,.351-.437-2.079-1.2-2.15-.041,2.608-1.87,2.817-2.754,4.3.576-.3,1.327,1.975.467,2.233-2.319-.926-6.7.711-8.542-1.347.272-1.04,1.143-1.889-.1-2.27.03,3.906-3.17-.766-4.015,1.012-.183,1.965,1.53.557,1.232,2.713-1.858-.369-1.17,2.688-2.438,3.122-1.6-1.9-6.3-.984-7.732.283.709,1.892,2.009-.843,2.65,1.421-.57,1.181-.26,3.559-.892,4.66-.683-.646-2.559.511-3.25,1.5,1.415.369,1.918,1.212.473,2.23,3.094.778,4.763-1.43,8.069-.889a3.236,3.236,0,0,1,.632-2.353c.266.957,1.74-.231,1.882.941.038,2-2.207.932-2.068,3.079,1.079.335,4.317-2.27,4.089.692l1.835-.206c-.349-3.952,4.574-2.356,3.351.778,1.743.369,4.405-.892,4.533,2.347-2.293-1.031-4.063-.572-5.841,1.221.709.163.736,1.541,1.885.932-.322-1.5.706-1.184,1.022-1.827.18,1.317,1.625.369,1.912,1.5-.23,1.842.659,1.689.863,2.756-1.652,1.845-3.637-.268-5.186-.575-.1,2.224,2.148.264,2.3,2.036.038.938-1,.431-1.046,1.255.44,1.261,2.606-.563,2.984.806-.851.815-2.438.64-2.464,2.553a13.059,13.059,0,0,1-3.43-2.473c.836,1.987-1.72,2.55-1.935,5.921,1.684-2.294,4.131-5.21,5.836-1.209,1.788-.9,4.713-1.36,5.924.492a5.435,5.435,0,0,0-2.071,3.082c.863,2.338,2.81-1.95,4.027-.446-.44.108-.86.261-.677,1.215,1.076.025,1.214-1.209,1.752-1.9.694.243,1.956,2.584.916,3.891-4.63-1.759-8.6.529-13.382-2.522,2.828-1.326,6.1,2.734,7.31-1.378-1.66,1.695-2.443-1.5-3.274.938-1.593-.8-1.938-3.3-3.4-1.907,1.259-.649.449,1.427.077,1.7a7.2,7.2,0,0,0-2.618-.849c-.133,3.014-3.457,1.744-3.46,4.943,3.433-3.6,7.4.08,10.421,2.273.978-.959-.742-2.245.239-2.876a2.44,2.44,0,0,1,1.176,1.587c-.957,2.919.3,2.1,1.333,4.983-2.021,1.147-1.321-2.547-2.695-2.556-.91.415-2.24,2.99-2.854,2.033-.03-.754.618-.6.683-1.227-.558-.231-.96-.738-1.519-.969.159,1.282.006,2.144-.629,2.353-.378-2.814-1.273-4.7-3.167-4.789-.1.99.609,1.393.08,1.71-1.309-1.16-3.392-.913-4.532-2.362-.6,1.919-1.678.12-2.878,1.461-.038-2.6-3.265.5-3.4-1.91-.062.452-.275.689-.706.649-.266,5.6,4.97,1.359,6.1,4.466-2.077-.172-1.315,1.311-.29,1.747-2.774,3.116-6.128-3.989-6.282-.455-.931-.077-3.43-2.867-3.008-1.387,1.737.76.346.421.5,2.808.414,1.16,2.249-1.474,2.958.237,0,.8-2.621.649-1.412,1.3,1.6-.557,1.507-.068,2.509-1.412.576.606.674,2.079,1.232,2.71.567-.48-.21-2.768,1-2.39.771,6.041,5.425,2.175,7.588,4.872-5.061,2.227-9.954.84-13.553,1.489.372-.025.5.95.05,1.138l-1.1.12a5.2,5.2,0,0,0-.5-2.8c-1.38,1.439-1.625-1.172-3.008-1.384-2.721,1.627-9.833.929-12.17-.375-1.808-.1-8.09,1.381-10.052-2.3-.024.858.23,2.085-.257,2.313-1.879-.738-7.455-2.005-7.455-2.005-.2.744.357,2.159-.26,2.31-.756-.492-.94-2.017-1.6-2.676-1.72,3.734-4.287-1.873-6.592.744C181.771,903.7,182.882,901.643,182.69,900.776Zm85.432-8.323c.753,2.467-3.023,1.584-1.7,3.039-.526,2.221-.659-1.163-1.149-1.009C265.545,892.893,267.058,892.976,268.122,892.453Zm38.987-43.609a2.484,2.484,0,0,0,2.568-.267c.547.769-1.5,2.574-2.836,2.584,1.492,2.734,4.532-1.243,6.19-1.805.331,1.753.059,2.322.493,2.8-.387,1.762-1.56-1.1-.812-1.624-.96,2.944-4.391,1.747-4.2,5.02a7.643,7.643,0,0,0-3.38-1.35c-.369,1.56-2.237,3.005-3.227,2.058C303.2,852.591,305.49,852.643,307.109,848.844Zm-26.492-14.825c1.389,1.043,1.6.391,3.7.163-.937,1.55-1.211.76.127,2.842-.393,1.83-.748.378-1.782,1.338-.4-2.695-.691-1.756-2.3-2.027C280.144,835.163,280.54,834.8,280.617,834.019Zm39.6,2.581c-1.634-.606-2.042.391-4.042.44C316.971,835.286,319.84,833.121,320.222,836.6Zm88.658-15.154a2.411,2.411,0,0,1-2.11,2.5l-.092-2.267Zm8.716-12.328c.662,0,.748-.784,1.442-.726.916,2.147,2.228,2.036,3.726.751-.9,3.411-2.615,1.218-4.317,2.741C417.88,811.452,417.6,810.529,417.6,809.117Zm-14.649-5.872c1.832-1,1.123,2.5,2.668,2C404.933,806.62,402.817,805.34,402.947,803.245Zm-47.092-21.816c-.083-1.9,1.415-1.667,1.72-3.039.824.763-.2,1.418.488,2.8C357.244,780.036,357.028,781.586,355.855,781.429Zm-9.9-32.6c.136-1.36,1.725-.535.762.486,1.126.1,1.805-1.692,2.228.338.428-.142.266-1.07.3-1.741,1.1.387,1.152.381,2.207-.24a4.9,4.9,0,0,1-1.3,4.131,5.662,5.662,0,0,1,3.773,1.873c1.011-.664-.6-1.455.272-2.3,1.12-.148,1.483,1.046,2.284,1.461-1.206,1.037-2.81,3.251-3.658.966-.892.218-1.244,2.457-1.844.194-.1,2.565-3.4,1.19-2.4,4.254,1.034-.117-.943-1.455.685-1.209-.233,1.839.656,1.692.86,2.756a5.31,5.31,0,0,1,6.329,1.037c.425-.142.263-1.077.3-1.75,3.933,1.153,6.341-.6,8.979,2.458.526,2.682-1.324,2.147-1.7,3.611-1.3-1.11.916-1.929,1.38-2.436-1.058-1.916-3.368,2.19-3.043-1.947-.9-.145-.756,1.12-1.814.763-.945.237.541.923.1,2.273-1.294-1.784-1.791-2.252-4.125-1.273a3.621,3.621,0,0,0,1.962,2.648c-.715.923-2.464,2.082-2.943.314-.765.237.6,1.458-.269,2.3-1.315-.861-2.707-.661-4.169-2.4-1,.84,1.211,1.049.857,2.756-.319,1.113-.733-2.725-2.278-1.467.092-.763.609-.963.659-1.784-.5-1.443-1.143,2.817-2.181.809.65-2.547,1.805-3.322,3.162-3.765-1.191-1.024-2.045.508-3.7-.166.325,1.667,1.318,2.747-.3,1.738,0,1.415.05,2.762.854,2.765-1.755-.6-3.357,2.211-5.147.551.535-2.436,2.952.532,3.6-2.1-.293-1.363-1.723.1-1.811.76-.313.141-.358-.185-.4-.526.05-.486-.165-.523-.39-.529.52-.9,1.575-1.086,2.526-1.412,0-1.415-.653-1.695-.857-2.759-.384,2.516-2.157,3.165-3.9,3.833-.056,1.529,2.033-.744,1.542,1.553-1.022.581-.987-.7-1.862-.375.2,1.086,1.442.3,1.2,2.159-1.019.581-.984-.7-1.859-.372.186-1.224.86-2.63.219-3.448-.937.163-.647,1.984-.588,3.488-1.143-.289-1.04,1.1-2.184.8-.121-.963.561-1.535-.077-1.7-.006-1.424,1.241-.3,1.474-.157-.426-1.35-.177-1.2-.517-3.368,1.625.959,2.547-1.793,2.772-4.285a12.447,12.447,0,0,1,1.25,3.282c2.151.575,1.315-2.864,3.608-2.1-.473-.791-.428-2.5-1.569-2.113,1.409-2.264,2.219,4.337,3.776,1.879-.975-2.113-3.977-6.2-5.983-1.639a6.354,6.354,0,0,1-2.381-3.743c2.4,1.852,5.83-1.015,5.738-4.029.922,1.43,1.915,2.728,3.46,3.045C349.062,750.665,347.414,749.911,345.951,748.832Zm17.338,16.4-1.471.16c.644-1.163-.018-1.443-.121-2.845C362.852,762.341,363.023,763.866,363.289,765.232ZM303.873,750.5c.03-.664-.127-1.006-.42-1.1.065-.618.712-.458.688-1.206C305.209,748.174,305.147,750.791,303.873,750.5ZM682.488,619.3a7,7,0,0,1-2.145,1.929c-.343-1.722,1.244-.818.629-2.913C681.708,618.256,681.5,619.83,682.488,619.3Zm34.62,64.945c.041,2.129-3.705.668-2.529,1.393-.3,1.424-1.483-.584-1.539-1.553.325-.621,1.876-.71,1.882.947.431-.135.269-1.07.3-1.744C716.139,683.118,716.4,684.074,717.108,684.249Zm-1.244,16.09c-.242,1.332-2.26.778-1.885-.947C715.137,698.773,715.152,700.164,715.864,700.339Zm24.022,39.773c-.662,1.135-.925.151-1.841.191.136-.723.429-1.224,1.061-1.255.047-.486-.162-.523-.387-.532-.086-.471.121-.547.343-.606l.739-.074C739.23,739.026,739.856,738.562,739.886,740.112ZM720.343,909.689c-1.389-.4-2.118-1.938-4.1-1.3,0-1.7-1.539-3.334-.151-3.971,1.058.166,1.135,2.045,1.593,3.254l2.207-.215C719.882,908.474,720.388,908.607,720.343,909.689Zm-96.3,83.877-1.471.154c.26-1.867-1.22-.677-1.528-1.553,1.208.034.541-1.962,2.5-1.965C623.341,991.964,623.994,992.228,624.041,993.566ZM308.2,915.484c-.47,1.572-2.024-.022-1.909-1.5C307.7,913.091,307.248,915.537,308.2,915.484Zm-103.869-8.6c.148-1.393,1.324-1.415,2.121-1.944C206.729,907.484,205.175,907.177,204.327,906.887Zm14.058,1.307c1.079-1.378,1.805-.151,2.931-.32l.1,2.27A2.853,2.853,0,0,1,218.385,908.194ZM233.537,893.4c1.669.237,1.013,1.055,2.961.246.659,1.956-1.232.477-1.022,1.818.009,1.624,2.367-.941,1.906,1.513-1.545.178-2.411-.846-3.658.4C232.813,896.214,233.744,895.156,233.537,893.4Zm4.869,1.741c.464.612,1.324.5,2.225.335C240.6,897.414,238.1,898.417,238.406,895.144Zm3.085,11.082c-.417-1.679,2.352-1.747,2.148-1.378C244.079,906.863,242.23,905.792,241.491,906.226Zm6.1,4.46c.443-1.784,2.556-.88,3.324.206C250.981,914.2,248.145,911.787,247.586,910.686Zm-.269-30.21c.756-.907,2.721.135,3.031,1.953C249.244,880.817,247.767,883.462,247.318,880.475Zm3.286-24.9c.824-1.4.476-1.891.186-4.014,1.944-.225,2.349,1.762,3.277-.926,1.563.935,3.345,6.425.68,6.773C255.136,854.491,251.6,857.34,250.6,855.574Zm3.02,25.923c.106-1.292,1.8-.428,2.544-.855C256.22,883.025,254.208,882.644,253.623,881.5Zm-.925-20.442c-.21-1.341,1.69.126,1.022-1.827a1.685,1.685,0,0,0,1.859.366C256.146,863.054,253.454,861.953,252.7,861.055Zm4.14,34.353c-.931-.935,2.124-.132.629-2.356,1.318.228,1.793,1.953,2.984.809l.077,1.713c1.191-.249,1.856-1.328,3.3-.366.355-.059.251-.726.316-1.178,1.111.258-.3,1.249.1,2.273l-5.132.563C259.16,893.809,258.1,895.064,256.838,895.409Zm.428-14.887a1.7,1.7,0,0,1,1.861.366c.021,1.449-.434,2.264-1.365,2.43A5.191,5.191,0,0,1,257.266,880.522Zm2.961.249c1.445-1.944,5.546,1.049,7.283-1.95a8.476,8.476,0,0,1,3.061,2.522c-.077,1.91-1.551.744-1.859-.369-1.666,3.156-4.166.686-6.181,1.821C262.144,880.34,261.181,882.466,260.227,880.771Zm5.4-2.882c-.34-2.122,2.52-1.344,2.91-.892C268.252,879.322,267.04,877.086,265.625,877.889Zm4.332-10.175c1.7-.969.547.87,1.6,2.679-.505-.741-1.746-.16-2.251-.9.056-.72.7-.652.733-.074C270.5,869.24,270.438,867.668,269.956,867.714Zm1.7,4.946c-.118-1.221,1.288-.4,1.808-.763.03-.67-.127-1-.417-1.095C275.047,869.031,273.183,874.536,271.655,872.66Zm3.531,4.746c1.474.917-1.708-.486-.343.612-.526.689-1.776-.661-2.591-.286.03-.674.644-.563,1.073-.686.4-.187.2-1.153.685-1.218C274.264,874.585,273.919,877.535,275.186,877.406Zm.133,19.39c-.378-1.935.3-2.442.582-3.488,1.129.231,1.926,1.055,1.983,3.2Zm2.364-4.823c2.29,2.384,5.4,3.248,7.9,3.691-2.021,2.224-5.112-1.043-6.97.769C279.541,893.8,277.334,895.16,277.683,891.973Zm3.646-58.6a3.941,3.941,0,0,0,.293-1.741c1.244-.381,2.1-.058,1.932,2.064C283.1,833.1,282.233,833.194,281.329,833.373Zm4.908,60.51c1.271.52.632,1.061,2.231.326C288.751,896.433,285.962,895.528,286.237,893.883Zm.092-6.287a1.413,1.413,0,0,1,2.151-1.369A1.929,1.929,0,0,1,286.328,887.6Zm-2.479-55.647c1.318-.292,1.817.864,2.987.824-.062.624-.709.461-.683,1.215,1.067.634,3.625.932,2.721,3.131-.759-.08-.795-1.449-1.2-2.156-1,.975-1.516-.021-2.913.889-.411-1.944.476-2.011,1.052-1.258C285.983,832.247,283.43,834.745,283.849,831.949Zm1.421-1.289c.139-.523.275-1.049.683-1.218,1.788-.117,1.566,3.349,3.457,3.048-.047.83-1.087.323-1.052,1.264C286.76,832.933,287.9,830.2,285.271,830.66Zm-.824-59.824c.062-1.956.96-.824.239-2.876l.736-.074c-.044.486.168.517.393.52C285.294,769.132,285.489,770.811,284.446,770.836Zm5.847,64.985c.886-2.584,4.506-1.076,5.877-.63C295,838.608,292.84,835.175,290.294,835.821Zm3.953,47.505c.39-4.377,4.538-3.777,6.48-3.549.222,2.439-1.108,2.771-1.661,4.168C296.856,883.075,295.577,883.76,294.247,883.327Zm-4.184-110.805c.68-2.87,4.2-1.842,5.129-1.129C294.439,773.921,290.707,772.389,290.063,772.522Zm7.629,63.647c-.033-2.178-.313-.172-1.129-.452.535-3.4,1.776.419,2.494-1.975C299.749,834.022,298.531,836.175,297.692,836.169ZM301.19,882l-.1-2.27c1.433-.708,1.217,1.519,1.6,2.679A1.487,1.487,0,0,0,301.19,882Zm-1.663-46.032c.553-1.316,2.352-2.848,3.229-2.054C302.1,837.165,301.013,835.1,299.527,835.972Zm-2.4-62.506c-.024-1.449,1.182-1.255,2.157-1.366C299.725,774.118,297.866,773.047,297.128,773.466Zm5.339,87.3a3.745,3.745,0,0,1,.606-2.922C304.931,857.432,304.429,861.747,302.467,860.763Zm5.3-13.7c-.748,2.31-2.523,1.849-3.179,3.2-1.1-.283-.727-3.2-1.986-3.211,1.173-1.261,2.754-1.978,3.129-4.321-1.445.714-1.8,2.907-3.936,2.7.151-.861.479-1.492.629-2.344.878-.335.848.947,1.864.36-1.436-2.488,3.345-3.165,4.745-1.08-.239,2.1-1.064.462-2.175.812-.526.178-.056,1.707-.662,1.778.1,1.249,1.569.068,2.231.332,1.079.864-.038,2.242,1.2,2.153C309.558,848.66,308.019,847.525,307.765,847.066Zm-7.088-143.587c.189-.547.993-.966.322-1.175.328-.975,1.536-.775,2.157-1.375.8,2.033-2.151,1.661-1,2.4C302.16,704.75,300.913,703.627,300.676,703.479ZM310.8,840.469c-.3.132-.343.609-.712.643.2.874,1.176.366.833,2.19-2.124.32-1.271-4.407-3.43-2.476,3.3-3.159,7.735.861,11.724-1.833.036.551.47.394.762.486-.629,1.818-1.433,1.8-1.321,3.568-.771.348-.736-.741-.81-1.63-.821.677-1.1,2.085-2.5,1.978C314.227,838.513,311.641,844.086,310.8,840.469Zm-.021,7.988c.558-1.193-.065-.723-.1-2.273,1.3,2.276,5.735-1.972,6.633-.142C315.583,848.715,312.262,846.716,310.778,848.457Zm3.95,14.4c-.606-.637,1.368-.176,2.547-.846C317.48,864.881,315.423,863.513,314.729,862.861Zm-.863-11.313-.074-1.7C315.964,849.456,316.112,852.83,313.866,851.548Zm-4.881-144.393a8.965,8.965,0,0,1,2.062-3.642c1.279.182.31,2.178.145,3.408Zm8.453,141.723c-.842,1.295.434,2.491-.219,3.451C316.271,852.624,315.683,848.011,317.438,848.878Zm.328,15.942c.006-1.827,2.325-1.563,2.228.332C319.093,865.324,318.23,865.426,317.766,864.82Zm-4.728-158.1c-.851-.735.4-1.44-.446-1.667-.236-1.562,2.03.231,1.794-1.332.987-.52.789,1.055,1.525.975.816-.4-.49-.837.29-1.741a1.3,1.3,0,0,0,1.135.446,4.712,4.712,0,0,0-.272,2.313c1.427-1.393.482-2.135,2.556-.843.018,1.458-1.185,1.258-2.16,1.378a2.6,2.6,0,0,0,1.152,1.015c-.881,1.907-1.666-1.5-3.342-.215C315.8,705.223,314.2,706.509,313.039,706.724Zm3.829,70.328c.133-2.174,1-.3,2.16-1.366C319.465,777.7,317.613,776.628,316.868,777.052Zm3.333,67.535c-.461-1.864,1.1-1.009,1.785-1.335C321.965,844.692,321.011,845.725,320.2,844.587Zm.7-9.2c.9.431,1.073,2.178,2.644,1.43C323.475,840.364,320.647,837.938,320.9,835.388Zm-3.611-82.336c-.012-.547.431-.492.712-.652.033-.661-.124-1-.42-1.089.287-1.784,1.253.117,1.5.4C318.809,752.6,317.935,752.661,317.294,753.052Zm18.216,112.709c-1.105,2.027,3.5,1.3,1.273,3.857.662,0,.745-.775,1.442-.729a3.5,3.5,0,0,1-.443-1.661c1.282.117,2.81,1.107,2.887-1.455.907,1.273,1.226.744,2.594.292.437,2.2-1.915.624-2.127,1.944,1.061,1.621,2.024-.366,3.008,1.39.378-1.882-1.2-.308-.83-2.2,1.3-.065,1.714,1.452,3.014,1.39.653,1.953-1.235.474-1.028,1.821.4,1.517,1.238-1.147,1.856.372.9-.517-1.282-1.578-.121-2.845,1.176,1.384.969,2.454,3.008,1.39a4.784,4.784,0,0,0-.266,2.316c1.268.283.514-2.162,1.368-2.433,3.348,4.435,7.088.24,10.788,2.257.2-1.667,3.156-1.756,2.99.821,1.055-1.535.671-1.7,2.494-1.981,1.3,4.365,8.028-.806,10.767,1.716.133,1.565-.482,2.011-1.052,1.249.089.455.39.532.414,1.1.913-2.165,4.931-4.235,6.217-1.224,1.773-2.218,3.581-.6,5.877-.625-.062,1.169-.945,1.218-1.008,2.387a1.168,1.168,0,0,0-2.225-.332c.13.99.685,1.224,1.516.978-1.356,1.55-3.566.686-5.85,1.19.411-.793.106-.907-.074-1.7-.632,1.172-1.466.544-1.855-.378-1.664,2.593-8.9-.692-7.863,5.967-2.839-.142-3.735.077-6.533,2.405-.508-.923-1.51-.984-1.929-2.07-.532,2.611-4.521,2.461-6.6.707-.925,0-.839,1.366-1.395,1.867-3.454-.185-7.594-1.107-10.74-1.132a2.466,2.466,0,0,0-4.134-1.836c-1.359-1.095-6.441-2.839-8.1.3-1.489.335.03-.8-.461-2.233-1.256.824-4.222,1.52-5.508.6,1.7-2.353-1.947-3.749-3.5-4.192,1.362-1.775,3.359.551,4.476,1.23.541-.692.685-1.925,1.758-1.9-.047.468-.34.612-.316,1.175,5.339-2.4,10.1-1.839,14.336-.969,1.084-.855,3.274-.222,3.6-2.1a16.883,16.883,0,0,0-10.663.584,3.9,3.9,0,0,0,.293-1.747c-.189-.757-3.608,1.848-3.034-1.956-1.27,3.224-2.508.252-3.156,3.765-1.649.277-3.348.637-3.4-1.925,1.138-.4,1.483,1.089,2.2-.231-1.188-.338-1.938-1.449-2.692-2.559-.331.443.349,2.642-.585,3.485-1.625-.175-2.367-1.929-3.454-3.054.795-1.24,2.207-1.655,2.813-3.15.771-.354.733.729.807,1.621,2.2-1.793,2.243-.828,5.112-1.117-.4-2.282-1.019-2.208-.2-4.546,1.8.861,1.43,2.218,2.766,4.263-1.111.547-.774-1.476-1.882-.938-.567.265.363.969-.319,1.175,1.9,2.719,3.017-2.4,5.138-.55C337.279,866.49,335.285,866.711,335.509,865.761Zm-11.234-3.922a2.789,2.789,0,0,1,2.52-1.421C326.237,861.347,325.126,862.925,324.276,861.839Zm-.535-29.048c.668.458.892,1.695.886,3.337l.736-.08c.532-.308-.18-.717-.077-1.7.709.163.736,1.55,1.885.935-.062.624-.709.467-.68,1.218.42,1.221,1.2-1.535,2.544-.843-1.433,2.99-3.735,2.362-5.1,1.685C324.872,835.108,323.129,834.188,323.741,832.792Zm.742,8.486c.3-2.07,3.711-1.51,4.066.126C326.825,842.016,326,841.041,324.482,841.278Zm1.7,22.069c-.242-1.584,2.169-1.953,1.888.935C326.716,865.25,327.3,862.8,326.181,863.347Zm-5.307-155.18c-.762.323-.993-.289-1.5-.409.03-.674.65-.554,1.079-.686.7-.308-.083-2.605,1.4-1.864l.077,1.707C321.179,706.792,320.78,707.158,320.875,708.167Zm6.311,152.79c-.121-2.574,1.693-.363,2.2-.243.34,1.71-.287,2.113-.222,3.448C328.306,863.448,328.708,860.492,327.186,860.957Zm1.554-82.892c-.437-1.882-2.254-1.317-2.727-3.134-.006-1.258,1.551-.4,2.184-.8-.021,1.667.91,1.645.883,3.322.653-1.264,1.2-2.661,2.452-3.119.248,3.107-1.873,2.768-.148,5.152a1.853,1.853,0,0,1-1.811.763c-.092-1.009.4-1.237.269-2.3-1.031.532-1.492,3.6-2.869,2.012C328.708,779.233,326.87,777.009,328.74,778.064Zm4.444,85.1c-.39-2.128,1.7-.9,2.517-1.409C335.988,864.3,334.053,863.485,333.184,863.162Zm-1.477-84.842a18.193,18.193,0,0,0,.561-4.06c1.347-.744,1.238,1.07,1.915,1.51.021.821-2.278,1.107-1.028,1.824C333.072,778.372,332.253,778.156,331.707,778.32Zm3.259-1.5c-.171-1.48,1.409-.6,1-2.387.721.154.145,2.593,1.548,1.547-1.468-1.4.186-2.049.73-.083C337.654,777.975,336.112,777.729,334.966,776.822Zm3.04,1.959c0,1.249-.875,1.316-1.788,1.335l-.074-1.7,1.1-.117C336.792,780,336.99,778.962,338.006,778.781Zm2.591,85.292c-.437-2.021,1.412-.947,2.157-1.366C342.982,865.121,341.481,864.38,340.6,864.072Zm-6.27-161.344c-.257-1.775.579-2.079.2-4.011,1.182.345,3.085-.557,3.389,1.344C334.812,699.453,335.778,701.929,334.327,702.729Zm3.457,53.826c.23-.486.5-1.618-.077-1.7,1.5-1.855,1.1,1.2,1.935,2.073C339.483,758.324,339,755.3,337.784,756.555Zm3.138,21.343c-.349-2.076,1.531-1.144,1.74-2.476,1.262.387.1,1.273.836,2.2.57-1.018,2.142-.689,3.286-.929C344.852,780.143,342.858,778.246,340.922,777.9Zm1.327-3.568c1.448-2.039,3.628,1.4,5.147-.557C346.51,776.646,343.774,774.189,342.249,774.33Zm-2.568-76.169c.948-.043.623,2.156,1.575,2.119C340.624,702.138,338.621,699.441,339.681,698.161Zm5.8,39.887c2.237,1.778,1.078,2.131,3.487,3.617C346.864,742.12,345.183,741.828,345.481,738.048Zm3.238,40.72c.325-2.239,2.585-1.864,3.557-3.23-.352,2.19,1.873,1.676,4.143,1.83a3.886,3.886,0,0,0-.293,1.747c-1.152.615-1.176-.775-1.885-.938.219,2.07-1.847-.194-2.113,2.513-.411-.415-1.773-3.863-1.888-.944C349.683,779.513,349.278,779.009,348.72,778.769Zm.91-21.77,1.471-.157C351.485,758.994,349.435,759.219,349.63,757Zm2.308-6.527c.248-3.174,2.222-.8,4-1.569C354.951,750.736,353.905,749.61,351.937,750.471Zm.662,6.779c-.44-2.018,1.415-.947,2.157-1.369C354.777,757.334,353.574,757.133,352.6,757.25Zm5.658,19.928c.526-.012,1.046-.015,1.081-.689C360.639,777.437,358.181,780.565,358.257,777.178Zm.151-13.709c.561-1.532,1.672,1.076,1.938,2.076C359.268,765.62,359.191,763.919,358.408,763.47Zm-.532-21.048c.9-1.633,3.147-.953,5.079-2.258-.227,1.658-2.452.624-2.089,3.079C360,742.736,358.633,743.117,357.876,742.422Zm3.729.735c.78-.7,3.165-3.546,3.312-.354C363.233,743.133,363.165,743.6,361.605,743.157Zm5.168,17.132c1.146-.4,1.347.883,2.6.3.251,1.769-.428,2.273-.588,3.485l-1.841.2A6.952,6.952,0,0,1,366.773,760.289ZM370,835.815c-.626-2.095.963-1.2.612-2.916C371.48,833.256,371.122,836.381,370,835.815Zm1.761-1.9c2.39.046,1.507-1.089,4.361-1.6,0,1.024.505,1.144.464,2.233-1.794-.818-3.315,2.113-5.117,1.1-.009-1.793.112-3.4,1.321-3.562C372.913,833.33,372.57,833.936,371.763,833.917Zm-.5-72.392c-.434-.049-.355-1-.443-1.664a1.7,1.7,0,0,1,1.864.372C372.741,762.359,371.252,760.424,371.264,761.526Zm.753,17.6c-.635-1.332,1.176-1.793,1.078-.677,1-.667-.6-1.458.266-2.31.745.311,1.049,1.415,1.229,2.716Zm3.209-2.611c-1.013-.4.7-1.886,1.081-.689.157,1.283,0,2.144-.638,2.356.4.871,1.037,1.2,1.492.406,0-.809-.006-1.609-.44-1.667,0-1.519,3.395,1.067,1.519.987.3,1.209,1.932-.188,1.4-1.861a1.329,1.329,0,0,0,1.132.452c.207,3.322-.57,1.2-.547,4.623-1.791.378-3.253-.951-5.242-1.738C374.883,778.353,376.107,775.256,375.226,776.511Zm5.425,101.535.095,2.27C379.354,880.915,379.218,877.75,380.651,878.046Zm.461,2.23c.848,1.2,1.235-.606,2.574-.271-.564,1.19.062.717.095,2.276C382.424,882.432,381.239,882.29,381.112,880.276Zm-1.87-96.211c-.142-.9.31-1.015.3-1.738.987-.517.786,1.055,1.519.981C381.171,784.536,379.765,783.705,379.242,784.065Zm8.684-4.334c.032-.794,1.994.086,1.909,1.507C388.493,781.995,388.6,780.174,387.926,779.731Zm3.253,7.071c.951.759,2.449.557,2.695,2.568C392.254,789.792,391.5,788.67,391.179,786.8Zm3.333.221c.709.169.736,1.547,1.885.941-.523.723-.827,1.732-1.764,1.9C393.9,788.848,394.807,788.811,394.512,787.024Zm7.821,133.215c.615-.274.709.372.78,1.064,1.043-.012.765-2.227,1.811-.766C404.62,922.033,402.368,922.445,402.333,920.239ZM400.8,778.369c.186-2.818,2.083.4,1.587,2.688C401.553,780.7,402.312,777.535,400.8,778.369Zm.753,9.052c1.291,1.107,1.643.071,2.987.827.2,1.344-1.69-.138-1.031,1.818C402.971,788.98,401.851,788.912,401.55,787.421ZM410.3,925.677c-.331-2.2,2.121-1.135,1.856.372C411.282,926.376,411.312,925.1,410.3,925.677ZM404.8,794.5a5.471,5.471,0,0,0,.242-2.882C406.968,791.828,406.726,795.858,404.8,794.5Zm.972,5.589c.207-2.011,1.259-.781,1.838-.185C407.568,801.243,406.008,800.4,405.772,800.087Zm3.5,21.887c1.108.889,2.955.477,2.739,3.7C411.123,823.266,409.43,825.871,409.273,821.974Zm4.453,97.635c1.019.434,2.541-.018,2.319,2.6C414.8,922.183,413.767,921.771,413.726,919.609Zm-4.148-125.618c1.421-.886.957,1.562,1.912,1.507-.281.883-1.146.944-1.793,1.335C408.96,795.824,409.873,795.781,409.577,793.991Zm3.011,1.393c.009-1.778,1.794-1.15,2.9-1.449A1.924,1.924,0,0,1,412.588,795.384Zm2.319,28.845c-.168-1.476-.248-2.83,1-2.387C415.806,822.943,415.883,824.293,414.908,824.229Zm-.594-14.2c.1-1.277,1.929-.649,2.2-.231-.287.858-.2,2.233-1.4,1.855C415.611,810.769,415.324,809.828,414.314,810.031Zm8.713,5.355-1.474.16c-.041-1.67,1.058-1.8,1.353-3C423.642,813.2,422.088,813.811,423.027,815.386Zm9.963,106.748a1.739,1.739,0,0,1,1.788-1.329C435.437,923.18,433.443,922.8,432.99,922.134ZM436.6,813.387c-.251-2.178,2.727-1.209,2.251.895C437.508,815.032,437.748,812.98,436.6,813.387Zm3.386,64.087c.16-.855.485-1.483.641-2.344a5.219,5.219,0,0,0,2.3,2.033C442.519,879.7,441.033,877.424,439.987,877.474Zm17.031,1.633a2.583,2.583,0,0,1,1.377-2.43l.092,2.282Zm8.128,63.6c1.785.292,2.97,1.667,5.206,1.169a1.2,1.2,0,0,1-2.181.8c-.118,1.233.57,1.024,1.149,1.018A3.435,3.435,0,0,1,465.146,942.708Zm26.527,18.338c-.171-1.489.706-1.55,1.4-1.861C493.455,961.187,492.406,962.088,491.674,961.046ZM537.353,831.4c.366,1.575-.461,1.529-.251,2.882C536.006,834.342,535.976,830.989,537.353,831.4Zm9.892,147.256c-.659-1.9,2.346-2.944,2.175-.8C548.082,977,548.534,978.329,547.245,978.655Zm6.314,29.561c.31-1.372-.021-3.608,1.338-3.556C555.1,1005.989,554.81,1008.127,553.56,1008.216Zm36.588-15.167c-.21-2.073,1.27-1.855,2.11-2.495C592.523,993.858,591.143,992.13,590.148,993.049Zm9.984-369.383c-1.74.009-2.993-1.609-3.664.944-2.441-2.842,1.7-4.192,2.816-3.7-.417-.185-.18,2.51.39.529C600.253,621.866,599.609,622.3,600.132,623.666Zm9.9,331.416c-1.1-1.018,1.356-1.695,1.749-2.455C612.887,953.639,610.435,954.328,610.036,955.082Zm3.265-1.464c-.053-1.138-1.031-.627-.824-2.2,4.193-1.63,6.373.206,9.886-1.587-1.69-2.411,1.214-2.212-.2-5.109a3.854,3.854,0,0,0-2.136,1.925c-1.188-.532-.009-2.264-1.924-2.079.124-1.624.8-2.5.951-4.091,1.46.034-.34,2.015,1.167,1.59.2,1.356-.626,1.31-.263,2.879.272-2.144,2.2-2.018,3.2-3.174-.591,3.842,1.537,2.43.541,4.512-.015,1.23,1.309.12,1.856.381.083,1.009-.4,1.24-.281,2.3-.863-.086-1.557-.953-2.2.228.408.9,1.714.227,1.9,1.516-.869.83-1.785.372-3.3.329,1,1.077,1.132,3.679,3.064,3.119.434,1.667-.78,1.08-1.421,1.28-.151,1.833.753,1.686.109,2.845a2.456,2.456,0,0,1,2.934-.3c-.189,1.87-2.056.612-.993,2.953-1.155.612-1.179-.757-1.528-1.557-.428.135-.272,1.064-.307,1.744-.771-.24-.809-.812-.428-1.67-.756.4-1.123,1.744-1.817.756-.136-.911.313-1.018.3-1.744-1.879-2.125-4.308,1.052-6.97.708.195,1.07,1.084.929.839,2.768-1.076.071-.886-2.079-2.266-1.485.561-2.774-1.321-1.972-2.311-2.611C610.913,955.383,611.581,953.784,613.3,953.618Zm2.6-8.821c.346-.787.278-2.135.623-2.922l1.835-.182C618.161,944.181,616.793,942.674,615.9,944.8Zm-2.246-.914a1.726,1.726,0,0,1,1.791-1.319l.065,1.695C614.642,944.587,614.677,943.3,613.658,943.883Zm3.8,50.935a2.616,2.616,0,0,1,1.743-2.467C619.328,994.135,618.338,994.4,617.461,994.818ZM604.168,622.682c2.234-.489,4.967-2.78,6.955-1.846C609.991,623.656,605.725,624.995,604.168,622.682Zm13.9,340.139a2.783,2.783,0,0,1,2.529-1.393c.325,1.7-.3,2.107-.239,3.436C619.222,964.844,619.63,962.107,618.07,962.82Zm3.454,3.636a3.788,3.788,0,0,0,.3-1.738c1.135-.175,1.779.507,2.609.874C623.468,966.124,622.445,966.714,621.524,966.456Zm3.253-20.86c-.325-1.516.685-1.212.65-2.347.786-.169.245,2,.473,2.811A1.319,1.319,0,0,0,624.777,945.6ZM614.4,619.363c-.015-1.445,1.327-1.482,1.826-.753C615.924,619.63,614.988,620.206,614.4,619.363Zm20.845,12.715c1.09-3.094,4.45-.677,6.938-2.418C641.444,633.213,637.18,632.992,635.242,632.078ZM656.1,945.833c1.572.661,3.933-2.636,4.488,1.827-.966.111-2.319-.3-1.767,1.892-1.105.514-1.359-.449-2.225-.351C656.8,947.438,656.147,947.171,656.1,945.833ZM644.567,624.287c-.257-2.75,1.64-1.086,2.553-.833C647,625.419,645.383,624.505,644.567,624.287ZM657.4,941.142c0-1.261,1.551-.4,2.183-.8C659.423,942.456,657.958,942.139,657.4,941.142Zm-9.517-317.19,1.477-.148C649.726,625.957,647.673,626.163,647.879,623.952Zm13.208-3.051c-.033-1.685,2.139-1.741,1.865.378C662.136,622.762,662.233,620.5,661.087,620.9Zm3.12,13.94c3.135-4.119,7.718-.64,9.777-5.552,1.17-.821.352,1.808,1.519.987-.5,2.882-.948,4.091-1.584,7-1.944-2-3.649,1.633-5.1,2.221-1.12-.055-1.38-1.624-2.987-.83-.024-2.762,1.076-.652,2.142-1.932C667.407,632.832,665.41,636.1,664.207,634.84Zm2.733-15.671c.026,1.556.659,1.083.089,2.27l.739-.071C668.409,623.444,664,619.563,666.94,619.169Zm.629,6.782c.428-1.544,1.143-1.864,2.169-1.36C669.75,626.037,668.545,625.837,667.57,625.951Zm3.59,55.509c-1.1-.384.825-.935.281-2.31.659.67,1.5,1.021,1.584,2.688C671.9,682.9,671.437,679.873,671.159,681.46Zm2.491,7.161c-.041-.834,1.483-1.953-.065-1.707,3.173-4.445,2.565,2.919,2.683,2.583.089.471-.121.551-.343.6l.041,1.135C674.977,690.746,674.64,689.106,673.65,688.62Zm-1.61-61.989c-.177-2.2,2.246-.886,2.491-2.522C675.648,625.484,673.556,627.065,672.04,626.631ZM674.5,672c-.053-1.71,2.553-1.913,2.225.341C675.314,672.737,675.441,673.1,674.5,672Zm3.933-42.594c.124,2.513.118,4.835-1.675,4.731C678.325,632.822,675.769,629.224,678.434,629.405ZM676.5,617.631c.535.763,2.786-1.1,3.25-2.039.08,3.122-2.813,4.6-3.9,4.386C675.831,618.517,677.539,619,676.5,617.631Zm2.009,23.742a1.726,1.726,0,0,1,1.427-1.289l.089,2.282C678.865,643.179,679.684,640.555,678.514,641.373Zm4.793-10.172c-.954-1.126,1.179.04,1.5.424-.635,3.513-.505,5.287-1.569,7.564-1.513-1.4-2.122-4.368-3.555-5.918,1.4-1.187,1.894-2.135,3.294-.892C683.4,632.13,683.879,631.278,683.306,631.2Zm-1.188-2.165c-.762-.388.115-3.018.213-4.008,1.114-.529,1.368.443,2.24.341C683.915,626.812,682.44,627.145,682.118,629.036Zm1.61,32.914c-.606-.031.3-2.414-.148-3.98,1.081-.071,1.149,1.627,1.929,2.089C685.753,661.824,683.838,660.649,683.729,661.95Zm.8-37.718c.65-1.15-.015-1.418-.109-2.836l1.108-.114c.213,1.074-1.043,2.565.455,2.236C685.892,624.3,685.073,624.078,684.526,624.232Zm11.514,295.888c.195-2.433,2.231-1.5,3.259-1.47C698.6,919.64,696.715,920.775,696.041,920.119Zm9.4,24.711a16,16,0,0,1,.2-4.583c1.587.772,1.61,1.919,3.017,1.972C708.285,944.043,706.911,944.51,705.44,944.83Zm3.4,12.2c-.092-2.86,1.055-.67,2.529-1.393C711.2,958.219,710.253,956.632,708.838,957.026Zm-.81-41.532,1.466-.151a37.6,37.6,0,0,0,.948,5.6l-1.469.151C710.176,918.428,708.53,918.166,708.028,915.493Zm-5.005-183.077c1.114.677,1.59,2.47,2.7,3.14.665.006.75-.763,1.451-.711,0-1.418-.281-2.341-.842-2.765-.538.307.171.711.062,1.7-.656.129-.8-.618-1.5-.424-.331-1.722,1.247-.812.635-2.907-.517-1.689-1.374.969-1.861-.384-.065-2.064,2.606-.4,2.1-3.064,1.111-.529,1.362.443,2.231.344.307-1.744-.857-.92-1.513-.987l-.086-2.27a4.6,4.6,0,0,1,2.967.271c.375-.271,1.208-2.331-.065-1.7a4.662,4.662,0,0,1,5.608,1.71c1.282-.28-.762-2.442.284-2.3a9.443,9.443,0,0,1,1.294,5.007c-2.381-.3-3.794-2.267-6.019-2.823.4,1.716,1.793,1.71,3.031,1.975-.626,2.175.284,1.393,1.188,2.168-.541,2.873-2.624,1.39-4.352,2.141.789,1.993,3.537,1.47,5.543.009.242,1.778-1.081,1.4-.612,3.485.818.917,1.073-.068,2.207-.209.092,2.273-1.858,1.762-3.247,2.024.718-.455,1.076-2.694-.106-2.839-1.253,2.445-2.943,2.012-4.636,4.454,1.406,1.535,2.458-2.015,4.376-1.578-.709,1.879.488.058,1.167,1.593.038,1.858-.358,3.113-1.341,3.562.142-.523.284-1.058.688-1.218-3.894-1.59-5.833,1.1-7.4-.391l-.127-3.417c-1.259,1.239-1.658-.092-2.966-.265C704.707,733.318,703.047,734.766,703.023,732.417Zm2.127-12.19c1.581.271,2.175.692,1.409-1.855,1.061.28,1.554,2.713,2.228.351,1.253-.369,1.173,1.59,1.926,2.082-.966.661-1.61,1.76-2.881,2C708.524,718.071,705.41,723.521,705.15,720.227Zm-1.335,23.514c.213-1.292,1.661-2.064,2.166-1.363C706.2,744.8,704.7,744.046,703.815,743.741Zm5.646-26.793c.966-1.458,2.553.735,2.884-2.005,1.454-.24-.089.883.8,1.633,1.244-.815,3.445-.554,4.027-.981.437,1.67-.78,1.095-1.427,1.286.331,2.248,1.915,2.3,3.767,1.9-.236,1.87-1.185,2.387-.978,3.522-1.129-.621-.216-1.267-2.231-.347.068-1.169.957-1.215,1.019-2.378-1.7,1.922-3.661,2.94-5.847,1.725a13.385,13.385,0,0,0,4.314-3.285C714.508,716.825,710.209,720.449,709.461,716.948Zm.659-41.7c.3-1.233,2.65-1.043,2.249.926C711.116,676.748,710.794,675.7,710.12,675.25Zm9.434,223.118,1.1-.111.127,3.4C719.995,901.228,719.6,900.1,719.554,898.367Zm-6.276-217.723a2.664,2.664,0,0,0,1.146,1.024c.018,1.446-1.321,1.479-1.823.744.55-.867.183-2.983,1.371-2.981C714.144,680.383,713.728,680.534,713.279,680.645Zm3.436,42.406,1.469-.145.086,2.27Q716.554,725.753,716.715,723.051Zm-1.66-44.3c.414-2.8,3.12.849,2.3,2.049C716.195,680.8,715.787,679.495,715.054,678.753Zm5.711,63.85-.083-2.273c.428.049.647-.188.715-.643C722.234,740.014,721.7,742.911,720.766,742.6Zm.877-36.005c.192-2.144,1.962-.883,1.885.95C722.609,707.73,722.352,706.764,721.643,706.6Zm3.23-2.6a1.687,1.687,0,0,1,1.862.381c.159,1.3-1.043.738-1.043,1.812C725.038,706.125,724.817,705.3,724.873,704Zm24.051,130.988c1.025-1.43-1.734-1.36-1.247-3.866,2.769,1.482,5.709-1.922,8.518.861.062,1.9.139,3.786,1.6,3.257-.6,2.012.151,2.728.189,5.115-1.081-.335-1.43-1.938-2.313-2.621-1.445,2.353-3.389.554-3.977,2.107-1.046-.4-1.3-2.159-1.619-3.826-1.262,1.443-2.13,1.153-2.636-1.449C747.9,833.779,748.773,833.671,748.924,834.985Zm-1.058,1.243c-1.046,2.99,1.17,2.947,1.309,5.576-4.4-1.292-11.015,2.381-13.03-3.254-1.067.858-1.844.766-2.594-.317-1.087.486.4,1.184.083,2.279a5.929,5.929,0,0,1-3.088-3.682c3.82.046,5.112-1.089,7.741-.215-.086-.655-.685-.409-1.126-.458,2.47-5.6,4.193-.234,8.74-3.147a20.156,20.156,0,0,1,.9,4.466C747.163,837.073,747.136,836.135,747.866,836.227Zm-6.187,42.243c-.375-2.159,1.678-2.362,1.469-.148Zm-5.106-138.026c-.038-4.4,2.76-.572,0,0Zm.449,2.233c-.03-1.695,2.142-1.735,1.864.384C738.006,743.382,738.048,742.108,737.023,742.677Zm6.27,139.625c1.5-.812,1.474,1.043,2.615.877a3.8,3.8,0,0,1-2.142,1.916A5.2,5.2,0,0,1,743.292,882.3Zm8.388-2.553a9.416,9.416,0,0,1,2.077-3.629c-.343-2.6-1.188.987-1.489-.424-.372-2.128,1.714-.889,2.532-1.387-.03,2.458,1.876,1.55,1.983,3.79-1.412.049-2.931-.049-2.878,1.993C752.8,880.626,752.546,879.645,751.681,879.75Zm-.5-133.926c.006-1.747,1.938-1.384,1.862.387A1.7,1.7,0,0,1,751.178,745.824Zm4.813,10.35c-.656-.458-1.974.221-1.9-1.516C755.061,754.577,756.376,753.9,755.992,756.174Zm2.432-4.232c.414,1.882,1.737,1.479.49,3.371,1.489,1.08,3.894-1.587,4.157,2.442-2.414.5-5.3,1.919-7.079-1.581.222-1.313,1.522-1.163,2.148-1.922-1.548-1.243-3.634-2.23-5.174-.059-.836-3.346,3.469-3.608,4.742-1.6.455.12,1.206-1.771.3-1.75.691-1.356,2.6.28,3.354.806C761.363,754.248,758.923,752.329,758.423,751.941Zm-.3,92.384c.293-2.553,1.634-.864,2.508-1.959-.089-1.455-1.4-.775-1.9-1.523.216-1.858.9-3.07,2.08-3.62,1.909,3.435.576,5.669,2.559,9.43-1.684-.5-.73,2.593-2.508,1.962.558-1.836.688-3.079-.169-4.549C759.511,844.775,759.138,845.953,758.125,844.326Zm5.1-92.292c.768-2.147,1.377-.52,2.925-.858C765.337,752.723,764.306,753.319,763.228,752.034ZM310.622,727.523c2.051-.212,2.984-1.28,4.051-.437-.109,1.1-1,1.138-.609,2.919C313.092,727.563,311.668,730.46,310.622,727.523Zm11.03,6.8c-.591,2.005-1.545-.2-1.374,2.43-1.622.446-1.867-.584-2.946.31C317.536,733.816,319.861,734.234,321.652,734.326ZM319,732.893c-2.2-.849.434-1.833,1.424-1.292a5.093,5.093,0,0,1-1.371,2.436c-.857-.326-1.9-.307-2.63-.861C316.912,730.491,317.675,733.533,319,732.893Z" transform="translate(-181.227 -611.877)" fill="#b0060f" fill-rule="evenodd"/>
</svg>
